<?xml version="1.0" encoding="UTF-8"?>
<svg xmlns="http://www.w3.org/2000/svg" xmlns:xlink="http://www.w3.org/1999/xlink" width="40px" height="40px" viewBox="0 0 40 40" version="1.1">
<g id="surface1">
<path style=" stroke:none;fill-rule:nonzero;fill:rgb(100%,100%,100%);fill-opacity:1;" d="M 14.457031 28.808594 L 14.988281 29.09375 C 15.605469 29.417969 16.28125 29.703125 16.996094 29.917969 L 17.574219 30.097656 L 17.574219 32.78125 C 17.574219 33.425781 18 33.574219 18.359375 33.574219 L 21.578125 33.574219 C 21.9375 33.574219 22.363281 33.425781 22.363281 32.78125 L 22.363281 30.097656 L 22.941406 29.917969 C 23.65625 29.703125 24.339844 29.417969 24.949219 29.09375 L 25.480469 28.808594 L 25.910156 29.238281 C 26.660156 29.988281 27.167969 30.527344 27.378906 30.667969 C 27.558594 30.847656 27.738281 30.953125 27.917969 30.953125 C 28.234375 30.953125 28.527344 30.703125 28.527344 30.667969 L 30.8125 28.378906 C 31.0625 28.128906 31.277344 27.699219 30.8125 27.234375 L 28.917969 25.339844 L 29.203125 24.800781 C 29.527344 24.199219 29.8125 23.515625 30.027344 22.800781 L 30.207031 22.230469 L 32.890625 22.230469 C 33.535156 22.230469 33.675781 21.796875 33.675781 21.4375 L 33.675781 18.21875 C 33.675781 17.859375 33.535156 17.425781 32.890625 17.425781 L 30.207031 17.425781 L 30.027344 16.855469 C 29.777344 16.175781 29.527344 15.496094 29.167969 14.886719 L 28.886719 14.355469 L 29.3125 13.921875 L 30.78125 12.453125 C 30.957031 12.269531 31.066406 12.09375 31.066406 11.917969 C 31.066406 11.667969 30.886719 11.417969 30.78125 11.308594 L 28.484375 9.019531 C 28.417969 8.953125 28.167969 8.738281 27.875 8.738281 C 27.699219 8.738281 27.515625 8.808594 27.339844 9.019531 L 25.449219 10.917969 L 24.910156 10.636719 C 24.300781 10.3125 23.621094 10.019531 22.941406 9.808594 L 22.363281 9.667969 L 22.363281 6.949219 C 22.363281 6.265625 21.792969 6.15625 21.542969 6.15625 L 18.359375 6.15625 C 18.109375 6.15625 17.574219 6.261719 17.574219 6.949219 L 17.574219 9.667969 L 16.996094 9.84375 C 16.316406 10.058594 15.636719 10.308594 15.027344 10.667969 L 14.496094 10.953125 L 12.5625 9.027344 C 12.386719 8.84375 12.203125 8.777344 12.0625 8.777344 C 11.777344 8.777344 11.488281 8.988281 11.417969 9.058594 L 9.128906 11.3125 C 8.984375 11.496094 8.628906 11.957031 9.128906 12.457031 L 11.027344 14.355469 L 10.738281 14.890625 C 10.417969 15.5 10.128906 16.183594 9.917969 16.859375 L 9.734375 17.433594 L 7.050781 17.433594 C 6.40625 17.46875 6.261719 17.96875 6.261719 18.292969 L 6.261719 21.480469 C 6.261719 21.722656 6.371094 22.265625 7.050781 22.265625 L 9.734375 22.265625 L 9.917969 22.839844 C 10.128906 23.550781 10.417969 24.199219 10.738281 24.84375 L 11.027344 25.378906 L 9.128906 27.269531 C 8.667969 27.738281 8.949219 28.203125 9.128906 28.417969 L 11.386719 30.671875 C 11.453125 30.707031 11.738281 30.921875 11.996094 30.921875 C 12.171875 30.921875 12.3125 30.855469 12.496094 30.671875 Z M 14.457031 28.808594 "/>
<path style=" stroke:none;fill-rule:nonzero;fill:rgb(0%,35.686275%,100%);fill-opacity:1;" d="M 19.390625 27.308594 L 19.359375 27.308594 C 19.222656 27.296875 19.082031 27.28125 18.949219 27.265625 C 18.734375 27.238281 18.582031 27.042969 18.613281 26.824219 C 18.640625 26.609375 18.839844 26.464844 19.050781 26.488281 C 19.175781 26.503906 19.300781 26.519531 19.421875 26.527344 C 19.636719 26.542969 19.796875 26.734375 19.78125 26.949219 C 19.761719 27.15625 19.589844 27.308594 19.390625 27.308594 Z M 20.941406 27.265625 C 20.753906 27.265625 20.582031 27.125 20.558594 26.925781 C 20.527344 26.714844 20.675781 26.519531 20.890625 26.488281 C 21.011719 26.472656 21.136719 26.453125 21.253906 26.425781 C 21.464844 26.386719 21.671875 26.527344 21.707031 26.738281 C 21.75 26.949219 21.613281 27.15625 21.402344 27.199219 C 21.269531 27.222656 21.136719 27.246094 20.996094 27.261719 C 20.984375 27.265625 20.964844 27.265625 20.949219 27.265625 Z M 17.488281 26.886719 C 17.441406 26.886719 17.394531 26.878906 17.347656 26.863281 C 17.222656 26.816406 17.09375 26.761719 16.96875 26.707031 C 16.769531 26.621094 16.675781 26.390625 16.769531 26.191406 C 16.855469 25.988281 17.082031 25.902344 17.285156 25.988281 C 17.394531 26.042969 17.511719 26.089844 17.628906 26.128906 C 17.832031 26.207031 17.933594 26.433594 17.859375 26.636719 C 17.796875 26.785156 17.644531 26.886719 17.488281 26.886719 Z M 22.816406 26.738281 C 22.671875 26.738281 22.527344 26.652344 22.457031 26.503906 C 22.375 26.300781 22.464844 26.074219 22.660156 25.988281 C 22.769531 25.9375 22.886719 25.886719 22.988281 25.832031 C 23.183594 25.734375 23.417969 25.8125 23.515625 26.003906 C 23.613281 26.191406 23.535156 26.425781 23.34375 26.527344 C 23.222656 26.589844 23.097656 26.644531 22.972656 26.703125 C 22.925781 26.722656 22.875 26.738281 22.816406 26.738281 Z M 15.777344 25.957031 C 15.691406 25.957031 15.613281 25.9375 15.546875 25.886719 C 15.4375 25.800781 15.328125 25.71875 15.222656 25.636719 C 15.050781 25.496094 15.03125 25.25 15.167969 25.082031 C 15.300781 24.917969 15.550781 24.890625 15.71875 25.027344 C 15.8125 25.105469 15.910156 25.183594 16.011719 25.253906 C 16.1875 25.386719 16.222656 25.625 16.09375 25.800781 C 16.015625 25.90625 15.894531 25.957031 15.777344 25.957031 Z M 24.472656 25.714844 C 24.363281 25.714844 24.253906 25.667969 24.175781 25.574219 C 24.035156 25.40625 24.0625 25.160156 24.222656 25.019531 C 24.316406 24.949219 24.410156 24.863281 24.503906 24.78125 C 24.660156 24.636719 24.910156 24.644531 25.050781 24.800781 C 25.199219 24.964844 25.191406 25.207031 25.03125 25.355469 C 24.925781 25.449219 24.828125 25.542969 24.722656 25.625 C 24.652344 25.6875 24.5625 25.714844 24.472656 25.714844 Z M 14.378906 24.605469 C 14.261719 24.605469 14.144531 24.558594 14.066406 24.457031 C 13.984375 24.347656 13.902344 24.238281 13.824219 24.125 C 13.699219 23.949219 13.746094 23.703125 13.921875 23.582031 C 14.097656 23.457031 14.34375 23.503906 14.464844 23.683594 C 14.535156 23.78125 14.609375 23.878906 14.683594 23.980469 C 14.816406 24.152344 14.785156 24.390625 14.613281 24.527344 C 14.546875 24.578125 14.464844 24.605469 14.378906 24.605469 Z M 25.792969 24.285156 C 25.714844 24.285156 25.636719 24.261719 25.566406 24.214844 C 25.394531 24.09375 25.347656 23.847656 25.472656 23.671875 C 25.542969 23.574219 25.609375 23.46875 25.675781 23.363281 C 25.785156 23.183594 26.03125 23.121094 26.214844 23.234375 C 26.394531 23.347656 26.457031 23.589844 26.34375 23.777344 C 26.269531 23.890625 26.191406 24.003906 26.113281 24.121094 C 26.035156 24.230469 25.917969 24.285156 25.792969 24.285156 Z M 13.402344 22.921875 C 13.25 22.921875 13.105469 22.832031 13.035156 22.675781 C 12.988281 22.550781 12.9375 22.421875 12.894531 22.292969 C 12.824219 22.089844 12.933594 21.871094 13.136719 21.796875 C 13.339844 21.730469 13.5625 21.832031 13.628906 22.042969 C 13.671875 22.15625 13.714844 22.269531 13.761719 22.386719 C 13.84375 22.582031 13.746094 22.8125 13.546875 22.890625 C 13.503906 22.910156 13.453125 22.921875 13.402344 22.921875 Z M 26.675781 22.546875 C 26.636719 22.546875 26.589844 22.542969 26.550781 22.527344 C 26.347656 22.457031 26.238281 22.234375 26.308594 22.03125 C 26.347656 21.917969 26.386719 21.796875 26.417969 21.675781 C 26.472656 21.472656 26.691406 21.355469 26.894531 21.410156 C 27.105469 21.46875 27.222656 21.683594 27.167969 21.890625 C 27.128906 22.019531 27.089844 22.15625 27.046875 22.285156 C 26.988281 22.449219 26.832031 22.546875 26.675781 22.546875 Z M 12.925781 21.035156 C 12.730469 21.035156 12.558594 20.886719 12.542969 20.6875 C 12.519531 20.550781 12.511719 20.417969 12.503906 20.277344 C 12.488281 20.0625 12.65625 19.878906 12.871094 19.863281 C 13.082031 19.855469 13.269531 20.019531 13.28125 20.234375 C 13.292969 20.355469 13.296875 20.480469 13.3125 20.605469 C 13.339844 20.816406 13.183594 21.003906 12.96875 21.03125 C 12.953125 21.035156 12.9375 21.035156 12.925781 21.035156 Z M 27.046875 20.636719 L 27.019531 20.636719 C 26.808594 20.625 26.644531 20.441406 26.65625 20.222656 C 26.667969 20.105469 26.667969 19.980469 26.667969 19.859375 C 26.667969 19.644531 26.84375 19.46875 27.058594 19.46875 C 27.269531 19.46875 27.449219 19.644531 27.449219 19.859375 C 27.449219 19.996094 27.441406 20.136719 27.4375 20.269531 C 27.425781 20.472656 27.253906 20.636719 27.046875 20.636719 Z M 12.980469 19.089844 C 12.957031 19.089844 12.933594 19.089844 12.910156 19.082031 C 12.699219 19.050781 12.558594 18.847656 12.59375 18.636719 C 12.613281 18.5 12.640625 18.363281 12.671875 18.230469 C 12.71875 18.019531 12.925781 17.886719 13.136719 17.933594 C 13.347656 17.980469 13.480469 18.1875 13.433594 18.394531 C 13.40625 18.519531 13.378906 18.640625 13.363281 18.761719 C 13.328125 18.953125 13.160156 19.089844 12.980469 19.089844 Z M 26.957031 19.058594 C 26.769531 19.058594 26.605469 18.921875 26.574219 18.734375 C 26.550781 18.613281 26.53125 18.488281 26.503906 18.371094 C 26.457031 18.160156 26.589844 17.953125 26.796875 17.902344 C 27.011719 17.855469 27.214844 17.988281 27.265625 18.191406 C 27.296875 18.328125 27.324219 18.464844 27.34375 18.597656 C 27.378906 18.8125 27.234375 19.015625 27.019531 19.050781 C 27 19.058594 26.980469 19.058594 26.957031 19.058594 Z M 13.550781 17.230469 C 13.496094 17.230469 13.4375 17.21875 13.378906 17.191406 C 13.1875 17.097656 13.105469 16.863281 13.191406 16.671875 C 13.253906 16.546875 13.316406 16.425781 13.378906 16.300781 C 13.484375 16.113281 13.722656 16.042969 13.910156 16.144531 C 14.105469 16.25 14.175781 16.488281 14.066406 16.675781 C 14.011719 16.785156 13.957031 16.894531 13.902344 17.003906 C 13.839844 17.144531 13.699219 17.230469 13.550781 17.230469 Z M 26.371094 17.203125 C 26.222656 17.203125 26.082031 17.121094 26.019531 16.980469 C 25.96875 16.871094 25.910156 16.753906 25.855469 16.652344 C 25.75 16.464844 25.816406 16.230469 26.011719 16.121094 C 26.191406 16.019531 26.433594 16.082031 26.542969 16.277344 C 26.605469 16.394531 26.667969 16.519531 26.722656 16.644531 C 26.816406 16.839844 26.738281 17.074219 26.542969 17.160156 C 26.484375 17.191406 26.425781 17.203125 26.371094 17.203125 Z M 14.613281 15.597656 C 14.527344 15.597656 14.433594 15.566406 14.359375 15.5 C 14.191406 15.359375 14.175781 15.113281 14.316406 14.949219 C 14.410156 14.847656 14.503906 14.738281 14.597656 14.644531 C 14.746094 14.488281 14.996094 14.484375 15.144531 14.636719 C 15.300781 14.785156 15.308594 15.035156 15.15625 15.1875 C 15.066406 15.269531 14.988281 15.363281 14.90625 15.457031 C 14.832031 15.550781 14.722656 15.597656 14.613281 15.597656 Z M 25.300781 15.578125 C 25.199219 15.578125 25.089844 15.53125 25.011719 15.441406 C 24.925781 15.347656 24.847656 15.261719 24.761719 15.175781 C 24.609375 15.019531 24.613281 14.769531 24.769531 14.625 C 24.921875 14.472656 25.171875 14.472656 25.324219 14.628906 C 25.417969 14.730469 25.511719 14.832031 25.605469 14.933594 C 25.746094 15.097656 25.730469 15.34375 25.566406 15.484375 C 25.484375 15.546875 25.394531 15.578125 25.308594 15.578125 Z M 16.082031 14.316406 C 15.953125 14.316406 15.832031 14.253906 15.753906 14.140625 C 15.636719 13.957031 15.6875 13.71875 15.863281 13.597656 C 15.980469 13.527344 16.097656 13.453125 16.21875 13.386719 C 16.40625 13.277344 16.644531 13.34375 16.753906 13.527344 C 16.863281 13.714844 16.800781 13.953125 16.613281 14.0625 C 16.503906 14.125 16.402344 14.1875 16.300781 14.253906 C 16.230469 14.296875 16.15625 14.316406 16.082031 14.316406 Z M 23.832031 14.300781 C 23.753906 14.300781 23.683594 14.285156 23.621094 14.238281 C 23.519531 14.175781 23.417969 14.109375 23.300781 14.050781 C 23.113281 13.941406 23.050781 13.703125 23.160156 13.515625 C 23.265625 13.328125 23.503906 13.265625 23.691406 13.371094 C 23.8125 13.4375 23.933594 13.511719 24.046875 13.582031 C 24.222656 13.703125 24.277344 13.941406 24.160156 14.125 C 24.082031 14.238281 23.957031 14.300781 23.832031 14.300781 Z M 17.839844 13.484375 C 17.671875 13.484375 17.519531 13.378906 17.46875 13.207031 C 17.402344 13.003906 17.519531 12.785156 17.722656 12.722656 C 17.847656 12.675781 17.988281 12.644531 18.113281 12.609375 C 18.328125 12.550781 18.535156 12.683594 18.59375 12.890625 C 18.644531 13.097656 18.519531 13.3125 18.3125 13.363281 C 18.191406 13.394531 18.074219 13.425781 17.957031 13.46875 C 17.917969 13.472656 17.878906 13.484375 17.839844 13.484375 Z M 22.074219 13.480469 C 22.03125 13.480469 21.988281 13.472656 21.953125 13.457031 C 21.832031 13.421875 21.71875 13.386719 21.597656 13.359375 C 21.386719 13.308594 21.261719 13.09375 21.3125 12.886719 C 21.363281 12.675781 21.578125 12.550781 21.785156 12.597656 C 21.917969 12.636719 22.050781 12.671875 22.183594 12.707031 C 22.390625 12.769531 22.503906 12.988281 22.441406 13.199219 C 22.390625 13.363281 22.238281 13.480469 22.074219 13.480469 Z M 19.761719 13.160156 C 19.546875 13.160156 19.375 12.988281 19.363281 12.78125 C 19.359375 12.566406 19.53125 12.386719 19.746094 12.378906 C 19.886719 12.375 20.019531 12.375 20.15625 12.378906 C 20.371094 12.386719 20.542969 12.5625 20.535156 12.78125 C 20.53125 12.988281 20.355469 13.160156 20.144531 13.160156 L 20.136719 13.160156 C 20.011719 13.15625 19.886719 13.15625 19.761719 13.160156 Z M 19.761719 13.160156 "/>
<path style=" stroke:none;fill-rule:nonzero;fill:rgb(0%,35.686275%,100%);fill-opacity:1;" d="M 21.578125 34.339844 L 18.359375 34.339844 C 17.421875 34.339844 16.792969 33.707031 16.792969 32.769531 L 16.792969 30.660156 L 16.769531 30.652344 C 16.035156 30.425781 15.316406 30.136719 14.628906 29.769531 L 14.582031 29.75 L 13.035156 31.21875 C 12.828125 31.421875 12.496094 31.691406 11.988281 31.691406 C 11.5625 31.691406 11.203125 31.46875 11.03125 31.359375 C 11.019531 31.355469 11.019531 31.347656 11.011719 31.347656 L 10.917969 31.300781 L 8.550781 28.933594 L 8.527344 28.90625 C 7.933594 28.191406 7.953125 27.332031 8.574219 26.707031 L 10.0625 25.21875 L 10.042969 25.175781 C 9.765625 24.628906 9.421875 23.902344 9.167969 23.050781 L 9.160156 23.03125 L 7.050781 23.03125 C 5.972656 23.03125 5.480469 22.21875 5.480469 21.457031 L 5.480469 18.28125 C 5.480469 17.511719 5.953125 16.699219 7.003906 16.640625 L 9.15625 16.640625 L 9.167969 16.613281 C 9.390625 15.894531 9.699219 15.175781 10.042969 14.515625 L 10.058594 14.488281 L 8.574219 13 C 8.332031 12.765625 7.636719 11.910156 8.511719 10.8125 L 8.542969 10.777344 L 10.863281 8.488281 C 10.917969 8.4375 11.40625 7.980469 12.050781 7.980469 C 12.425781 7.980469 12.800781 8.152344 13.109375 8.457031 L 14.636719 9.984375 L 14.644531 9.980469 C 15.363281 9.550781 16.152344 9.28125 16.761719 9.089844 L 16.785156 9.082031 L 16.785156 6.9375 C 16.785156 5.859375 17.597656 5.371094 18.355469 5.371094 L 21.542969 5.371094 C 21.734375 5.371094 22.109375 5.402344 22.464844 5.628906 C 22.902344 5.910156 23.140625 6.371094 23.140625 6.933594 L 23.140625 9.042969 L 23.167969 9.050781 C 23.886719 9.277344 24.609375 9.578125 25.265625 9.933594 L 25.292969 9.949219 L 26.761719 8.480469 C 27.140625 8.042969 27.574219 7.941406 27.871094 7.941406 C 28.464844 7.941406 28.90625 8.332031 29.027344 8.457031 L 31.316406 10.746094 C 31.566406 10.996094 31.832031 11.425781 31.832031 11.90625 C 31.832031 12.292969 31.660156 12.652344 31.316406 12.996094 L 29.828125 14.484375 L 29.839844 14.496094 C 30.230469 15.160156 30.488281 15.878906 30.746094 16.574219 L 30.765625 16.636719 L 32.875 16.636719 C 33.8125 16.636719 34.449219 17.265625 34.449219 18.207031 L 34.449219 21.425781 C 34.449219 22.363281 33.816406 22.996094 32.875 22.996094 L 30.765625 22.996094 L 30.761719 23.015625 C 30.535156 23.75 30.246094 24.472656 29.878906 25.15625 L 29.863281 25.183594 L 31.355469 26.671875 C 31.730469 27.050781 31.90625 27.515625 31.839844 27.984375 C 31.792969 28.324219 31.625 28.652344 31.355469 28.921875 L 29.113281 31.171875 C 28.832031 31.519531 28.3125 31.730469 27.910156 31.730469 C 27.546875 31.730469 27.199219 31.574219 26.871094 31.261719 C 26.667969 31.109375 26.410156 30.855469 25.917969 30.347656 C 25.746094 30.183594 25.558594 29.988281 25.355469 29.78125 L 25.332031 29.761719 L 25.308594 29.777344 C 24.621094 30.140625 23.902344 30.4375 23.167969 30.65625 L 23.144531 30.667969 L 23.144531 32.777344 C 23.144531 33.714844 22.515625 34.339844 21.578125 34.339844 Z M 18.359375 32.855469 Z M 18.355469 32.777344 L 21.578125 32.777344 L 21.578125 29.511719 L 22.707031 29.160156 C 23.347656 28.96875 23.972656 28.707031 24.574219 28.394531 L 25.613281 27.832031 L 26.457031 28.675781 C 26.667969 28.886719 26.855469 29.078125 27.019531 29.25 C 27.355469 29.589844 27.703125 29.9375 27.800781 30.011719 L 27.871094 30.058594 L 27.941406 30.128906 L 30.25 27.824219 C 30.261719 27.8125 30.261719 27.808594 30.269531 27.800781 C 30.265625 27.792969 30.261719 27.792969 30.25 27.78125 L 27.949219 25.480469 L 28.503906 24.433594 C 28.824219 23.832031 29.074219 23.207031 29.269531 22.574219 L 29.269531 22.5625 L 29.625 21.441406 L 32.890625 21.441406 L 32.890625 18.214844 L 29.625 18.214844 L 29.28125 17.113281 C 29.042969 16.453125 28.808594 15.832031 28.488281 15.292969 L 28.472656 15.261719 L 27.917969 14.214844 L 30.238281 11.890625 C 30.230469 11.886719 30.230469 11.875 30.21875 11.863281 L 27.925781 9.578125 C 27.921875 9.574219 27.917969 9.566406 27.90625 9.558594 L 25.582031 11.871094 L 24.542969 11.3125 C 23.972656 11.011719 23.34375 10.75 22.730469 10.550781 L 21.582031 10.265625 L 21.582031 6.933594 C 21.574219 6.925781 21.558594 6.925781 21.542969 6.925781 L 18.355469 6.925781 L 18.355469 10.230469 L 17.234375 10.578125 C 16.703125 10.746094 16.015625 10.984375 15.425781 11.328125 L 15.402344 11.34375 L 14.355469 11.902344 L 12.019531 9.574219 C 12 9.582031 11.980469 9.597656 11.964844 9.609375 L 9.71875 11.824219 C 9.699219 11.84375 9.6875 11.863281 9.675781 11.878906 L 9.6875 11.890625 L 11.988281 14.199219 L 11.433594 15.246094 C 11.128906 15.816406 10.863281 16.449219 10.667969 17.078125 L 10.324219 18.199219 L 7.089844 18.199219 C 7.082031 18.199219 7.074219 18.199219 7.066406 18.199219 C 7.0625 18.21875 7.058594 18.246094 7.058594 18.277344 L 7.058594 21.464844 L 10.324219 21.464844 L 10.671875 22.589844 C 10.84375 23.160156 11.082031 23.738281 11.441406 24.457031 L 11.996094 25.5 L 9.691406 27.808594 L 9.675781 27.816406 C 9.6875 27.832031 9.699219 27.855469 9.71875 27.875 L 11.875 30.03125 C 11.894531 30.042969 11.925781 30.066406 11.964844 30.082031 L 14.339844 27.832031 L 15.371094 28.386719 C 15.964844 28.703125 16.59375 28.957031 17.230469 29.152344 L 17.238281 29.15625 L 18.359375 29.511719 L 18.359375 32.769531 C 18.355469 32.769531 18.355469 32.777344 18.355469 32.777344 Z M 11.03125 31.359375 Z M 9.644531 27.855469 Z M 30.3125 27.84375 Z M 9.640625 11.847656 Z M 11.96875 9.605469 L 11.964844 9.609375 C 11.964844 9.605469 11.96875 9.605469 11.96875 9.605469 Z M 12.089844 9.542969 Z M 11.964844 9.527344 Z M 27.839844 9.503906 Z M 27.972656 9.480469 Z M 27.972656 9.480469 "/>
<path style=" stroke:none;fill-rule:nonzero;fill:rgb(90.196079%,90.196079%,90.196079%);fill-opacity:1;" d="M 25.605469 23.714844 L 25.175781 23.316406 L 25.316406 23.050781 C 26.363281 21.066406 25.984375 18.574219 24.386719 16.988281 C 23.074219 15.691406 21.183594 15.207031 19.425781 15.683594 L 22.503906 18.730469 C 23.207031 19.425781 23.214844 20.574219 22.515625 21.28125 L 21.421875 22.386719 C 21.082031 22.730469 20.628906 22.917969 20.144531 22.921875 L 20.140625 22.921875 C 19.660156 22.921875 19.207031 22.738281 18.871094 22.394531 L 15.792969 19.355469 C 15.332031 21.109375 15.839844 23 17.152344 24.300781 C 18.75 25.886719 21.246094 26.238281 23.21875 25.167969 L 23.484375 25.019531 L 30.597656 32.558594 C 30.816406 32.792969 31.113281 32.917969 31.433594 32.921875 C 31.753906 32.925781 32.050781 32.800781 32.277344 32.574219 L 32.816406 32.03125 C 33.042969 31.808594 33.160156 31.503906 33.15625 31.183594 C 33.144531 30.863281 33.015625 30.566406 32.78125 30.355469 L 25.75 23.84375 Z M 25.605469 23.714844 "/>
<path style=" stroke:none;fill-rule:nonzero;fill:rgb(0%,35.686275%,100%);fill-opacity:1;" d="M 26.140625 23.144531 C 26.621094 22.105469 26.796875 20.925781 26.628906 19.792969 C 26.796875 20.933594 26.621094 22.109375 26.140625 23.144531 Z M 33.863281 30.683594 C 33.878906 30.746094 33.894531 30.808594 33.90625 30.875 C 33.894531 30.808594 33.886719 30.746094 33.863281 30.683594 Z M 26.277344 23.269531 L 26.140625 23.144531 Z M 25.605469 23.714844 L 25.746094 23.847656 Z M 25.605469 23.714844 L 25.175781 23.316406 Z M 25.605469 23.714844 "/>
<path style=" stroke:none;fill-rule:nonzero;fill:rgb(0%,35.686275%,100%);fill-opacity:1;" d="M 33.90625 30.875 C 33.894531 30.8125 33.878906 30.746094 33.863281 30.683594 C 33.855469 30.640625 33.839844 30.597656 33.824219 30.550781 C 33.71875 30.261719 33.546875 29.996094 33.3125 29.777344 L 26.28125 23.269531 L 26.144531 23.144531 C 26.625 22.105469 26.800781 20.925781 26.636719 19.792969 C 26.449219 18.511719 25.859375 17.355469 24.9375 16.4375 C 23.253906 14.769531 20.75 14.269531 18.550781 15.15625 L 18.003906 15.378906 L 21.953125 19.285156 C 22.144531 19.472656 22.253906 19.734375 22.261719 20.011719 C 22.261719 20.28125 22.152344 20.542969 21.957031 20.730469 L 20.863281 21.832031 C 20.675781 22.03125 20.417969 22.136719 20.144531 22.140625 L 20.140625 22.140625 C 19.871094 22.140625 19.613281 22.035156 19.421875 21.84375 L 15.46875 17.9375 L 15.253906 18.488281 C 14.390625 20.691406 14.921875 23.199219 16.605469 24.859375 C 17.527344 25.769531 18.691406 26.34375 19.972656 26.519531 C 21.113281 26.671875 22.292969 26.488281 23.324219 25.996094 L 30.03125 33.097656 C 30.394531 33.484375 30.894531 33.703125 31.425781 33.707031 L 31.449219 33.707031 C 31.972656 33.707031 32.464844 33.503906 32.832031 33.128906 L 33.375 32.582031 C 33.75 32.207031 33.949219 31.703125 33.9375 31.171875 C 33.933594 31.074219 33.925781 30.96875 33.90625 30.875 Z M 31.433594 32.925781 C 31.113281 32.921875 30.816406 32.792969 30.597656 32.558594 L 23.484375 25.027344 L 23.21875 25.171875 C 21.246094 26.246094 18.75 25.886719 17.152344 24.300781 C 15.839844 23.003906 15.339844 21.113281 15.792969 19.355469 L 18.871094 22.402344 C 19.214844 22.738281 19.660156 22.925781 20.140625 22.925781 L 20.152344 22.925781 C 20.628906 22.921875 21.082031 22.734375 21.421875 22.390625 L 22.515625 21.285156 C 23.214844 20.578125 23.214844 19.433594 22.503906 18.734375 L 19.425781 15.6875 C 21.183594 15.207031 23.074219 15.691406 24.386719 16.996094 C 25.984375 18.578125 26.371094 21.066406 25.316406 23.050781 L 25.175781 23.316406 L 25.605469 23.71875 L 32.777344 30.359375 C 33.011719 30.578125 33.144531 30.871094 33.152344 31.191406 C 33.160156 31.511719 33.042969 31.8125 32.8125 32.035156 L 32.277344 32.578125 C 32.050781 32.800781 31.753906 32.925781 31.433594 32.925781 Z M 31.433594 32.925781 "/>
<path style=" stroke:none;fill-rule:nonzero;fill:rgb(2.352941%,95.294118%,100%);fill-opacity:1;" d="M 32.753906 30.1875 C 32.660156 30.1875 32.5625 30.152344 32.488281 30.082031 L 26.097656 24.167969 C 25.9375 24.019531 25.933594 23.769531 26.078125 23.613281 C 26.230469 23.457031 26.472656 23.449219 26.628906 23.597656 L 33.019531 29.511719 C 33.183594 29.660156 33.1875 29.90625 33.042969 30.0625 C 32.964844 30.144531 32.855469 30.1875 32.753906 30.1875 Z M 32.753906 30.1875 "/>
</g>
</svg>
