<?xml version="1.0" encoding="UTF-8"?>
<svg xmlns="http://www.w3.org/2000/svg" xmlns:xlink="http://www.w3.org/1999/xlink" width="30px" height="30px" viewBox="0 0 30 30" version="1.1">
<g id="surface1">
<path style=" stroke:none;fill-rule:nonzero;fill:rgb(94.117647%,62.352943%,20%);fill-opacity:1;" d="M 15 29.179688 C 14.414062 29.179688 13.851562 28.96875 13.414062 28.582031 L 10.652344 26.152344 C 9.738281 25.34375 8.671875 24.726562 7.515625 24.339844 L 4.03125 23.164062 C 2.886719 22.777344 2.207031 21.601562 2.441406 20.417969 L 3.171875 16.8125 C 3.410156 15.613281 3.410156 14.390625 3.171875 13.1875 L 2.445312 9.582031 C 2.210938 8.398438 2.886719 7.222656 4.03125 6.835938 L 7.515625 5.660156 C 8.679688 5.269531 9.734375 4.660156 10.65625 3.847656 L 13.414062 1.417969 C 14.324219 0.621094 15.679688 0.621094 16.585938 1.417969 L 19.347656 3.847656 C 20.265625 4.660156 21.320312 5.269531 22.484375 5.660156 L 25.96875 6.835938 C 27.113281 7.222656 27.792969 8.398438 27.558594 9.582031 L 26.828125 13.1875 C 26.589844 14.386719 26.589844 15.609375 26.828125 16.8125 L 27.554688 20.417969 C 27.789062 21.601562 27.113281 22.777344 25.96875 23.164062 L 22.484375 24.339844 C 21.320312 24.730469 20.265625 25.339844 19.34375 26.152344 L 16.585938 28.582031 C 16.144531 28.96875 15.582031 29.179688 15 29.179688 Z M 15 29.179688 "/>
</g>
</svg>
