<?xml version="1.0" encoding="UTF-8"?>
<svg xmlns="http://www.w3.org/2000/svg" xmlns:xlink="http://www.w3.org/1999/xlink" width="40px" height="40px" viewBox="0 0 40 40" version="1.1">
<g id="surface1">
<path style=" stroke:none;fill-rule:nonzero;fill:rgb(100%,100%,100%);fill-opacity:1;" d="M 22.628906 9.574219 C 21.550781 8.832031 20.769531 8.058594 20.28125 7.488281 C 19.785156 8.058594 19.003906 8.832031 17.925781 9.574219 C 15.90625 10.949219 13.59375 11.703125 11.035156 11.832031 L 11.035156 20.925781 C 11.035156 21.261719 11.078125 21.644531 11.167969 22.078125 C 11.167969 22.078125 12.28125 29.082031 20.28125 32.707031 C 20.28125 32.707031 26.089844 30.511719 28.640625 24.347656 C 29.234375 22.988281 29.515625 21.777344 29.515625 20.925781 L 29.515625 11.832031 C 26.957031 11.703125 24.644531 10.949219 22.628906 9.566406 Z M 22.628906 9.574219 "/>
<path style=" stroke:none;fill-rule:nonzero;fill:rgb(90.196079%,90.196079%,90.196079%);fill-opacity:1;" d="M 24.171875 19.558594 L 25.910156 15.832031 L 23.4375 15.832031 L 21.699219 19.558594 Z M 16.488281 15.832031 L 14.753906 19.558594 L 17.230469 19.558594 L 18.964844 15.832031 Z M 22.4375 15.832031 L 19.964844 15.832031 L 18.222656 19.558594 L 20.699219 19.558594 Z M 11.691406 15.832031 L 11.691406 19.558594 L 13.753906 19.558594 L 15.488281 15.832031 Z M 28.863281 19.558594 L 28.863281 15.832031 L 26.910156 15.832031 L 25.171875 19.558594 Z M 28.863281 19.558594 "/>
<path style=" stroke:none;fill-rule:nonzero;fill:rgb(0%,35.686275%,100%);fill-opacity:1;" d="M 20.277344 32.707031 C 17.136719 31.347656 14.863281 29.144531 13.355469 26.949219 C 12.542969 26.671875 11.753906 26.378906 11.003906 26.078125 C 11.324219 26.671875 11.675781 27.265625 12.074219 27.832031 C 13.464844 29.863281 15.964844 32.625 19.953125 34.261719 C 20.058594 34.300781 20.167969 34.328125 20.277344 34.328125 C 20.386719 34.328125 20.496094 34.308594 20.605469 34.265625 C 23.503906 33.066406 25.613281 31.285156 27.089844 29.613281 C 26.4375 29.582031 25.765625 29.535156 25.082031 29.46875 C 23.792969 30.734375 22.199219 31.878906 20.277344 32.707031 Z M 34.816406 21.609375 C 34.527344 21.355469 34.199219 21.089844 33.824219 20.832031 C 33.058594 20.296875 32.128906 19.761719 31.074219 19.246094 L 31.074219 11.152344 C 31.074219 10.675781 30.691406 10.285156 30.222656 10.285156 C 27.703125 10.277344 25.449219 9.597656 23.511719 8.28125 C 22.003906 7.253906 21.199219 6.175781 20.980469 5.863281 C 20.824219 5.636719 20.558594 5.496094 20.277344 5.496094 C 20 5.496094 19.734375 5.636719 19.574219 5.863281 C 19.359375 6.171875 18.546875 7.253906 17.042969 8.277344 C 15.105469 9.597656 12.839844 10.269531 10.324219 10.285156 C 9.855469 10.285156 9.472656 10.675781 9.472656 11.144531 L 9.472656 14.765625 C 8.988281 14.796875 8.53125 14.839844 8.105469 14.894531 C 7.136719 15.027344 6.316406 15.222656 5.652344 15.480469 C 4.515625 15.921875 3.855469 16.542969 3.683594 17.316406 C 3.519531 18.058594 3.824219 18.855469 4.582031 19.691406 L 4.589844 19.699219 C 4.605469 19.707031 4.613281 19.730469 4.628906 19.738281 C 5.339844 20.5 6.40625 21.269531 7.8125 22.042969 C 7.90625 22.09375 8.003906 22.144531 8.105469 22.199219 C 8.625 22.480469 9.1875 22.75 9.777344 23.011719 C 9.949219 23.660156 10.191406 24.332031 10.496094 25.019531 C 11.1875 25.316406 11.921875 25.609375 12.691406 25.886719 C 12.277344 25.167969 11.941406 24.457031 11.683594 23.796875 C 13.84375 24.621094 16.292969 25.347656 18.863281 25.917969 C 21.753906 26.558594 24.582031 26.949219 27.109375 27.066406 C 26.714844 27.636719 26.269531 28.199219 25.777344 28.746094 C 26.449219 28.800781 27.097656 28.839844 27.730469 28.859375 C 28.011719 28.503906 28.261719 28.160156 28.480469 27.832031 C 28.644531 27.597656 28.800781 27.355469 28.953125 27.109375 C 29.496094 27.105469 30.015625 27.089844 30.519531 27.050781 C 31.828125 26.96875 32.9375 26.785156 33.824219 26.503906 C 34.019531 26.441406 34.203125 26.378906 34.375 26.3125 C 34.714844 26.175781 35.011719 26.019531 35.261719 25.847656 C 35.136719 25.628906 34.96875 25.421875 34.792969 25.222656 C 34.53125 25.394531 34.207031 25.546875 33.824219 25.675781 C 32.972656 25.972656 31.832031 26.183594 30.46875 26.269531 C 30.128906 26.296875 29.777344 26.3125 29.417969 26.324219 C 30.457031 24.417969 31.078125 22.449219 31.078125 20.925781 L 31.078125 20.113281 C 32.171875 20.671875 33.105469 21.238281 33.824219 21.800781 C 33.996094 21.933594 34.152344 22.0625 34.300781 22.199219 C 34.9375 22.761719 35.660156 23.59375 35.496094 24.34375 C 35.46875 24.457031 35.421875 24.574219 35.355469 24.683594 C 35.550781 24.894531 35.722656 25.109375 35.855469 25.324219 C 36.058594 25.074219 36.191406 24.800781 36.253906 24.511719 C 36.453125 23.613281 35.96875 22.636719 34.816406 21.609375 Z M 8.1875 21.355469 C 8.160156 21.332031 8.128906 21.324219 8.097656 21.300781 C 6.777344 20.574219 5.769531 19.832031 5.152344 19.144531 C 5.144531 19.144531 5.144531 19.144531 5.144531 19.144531 C 4.894531 18.894531 4.738281 18.625 4.675781 18.519531 C 4.457031 18.140625 4.375 17.792969 4.441406 17.480469 C 4.628906 16.625 5.96875 15.984375 8.097656 15.683594 C 8.527344 15.625 8.984375 15.578125 9.472656 15.546875 L 9.472656 20.925781 C 9.472656 21.28125 9.503906 21.660156 9.566406 22.050781 C 9.082031 21.824219 8.621094 21.589844 8.1875 21.347656 Z M 29.515625 20.933594 C 29.515625 22.167969 28.910156 24.207031 27.609375 26.308594 C 25.015625 26.21875 22.0625 25.824219 19.035156 25.152344 C 16.25 24.535156 13.621094 23.738281 11.355469 22.828125 C 11.140625 22.09375 11.035156 21.441406 11.035156 20.925781 L 11.035156 11.832031 C 13.59375 11.703125 15.90625 10.949219 17.925781 9.566406 C 19.003906 8.832031 19.785156 8.058594 20.28125 7.488281 C 20.769531 8.058594 21.550781 8.832031 22.628906 9.566406 C 24.644531 10.941406 26.957031 11.703125 29.515625 11.832031 Z M 29.515625 20.933594 "/>
<path style=" stroke:none;fill-rule:nonzero;fill:rgb(2.352941%,95.294118%,100%);fill-opacity:1;" d="M 9.457031 17.3125 C 7.894531 17.410156 6.609375 17.652344 5.644531 18.027344 C 5.269531 18.171875 4.949219 18.339844 4.675781 18.519531 C 4.796875 18.730469 4.957031 18.933594 5.152344 19.152344 C 5.980469 18.605469 7.480469 18.234375 9.457031 18.105469 Z M 9.457031 17.3125 "/>
<path style=" stroke:none;fill-rule:nonzero;fill:rgb(2.352941%,95.294118%,100%);fill-opacity:1;" d="M 4.675781 18.519531 C 4.734375 18.625 4.894531 18.894531 5.140625 19.152344 C 5.144531 19.152344 5.144531 19.144531 5.144531 19.144531 C 4.957031 18.925781 4.796875 18.722656 4.675781 18.519531 Z M 35.855469 25.324219 C 35.714844 25.109375 35.546875 24.894531 35.355469 24.683594 C 35.191406 24.511719 35.015625 24.332031 34.816406 24.15625 C 33.925781 23.363281 32.625 22.546875 31.027344 21.769531 C 31.011719 21.875 30.941406 22.34375 30.894531 22.578125 C 32.332031 23.292969 33.496094 24.03125 34.296875 24.746094 C 34.457031 24.886719 34.628906 25.050781 34.785156 25.222656 C 34.964844 25.417969 35.128906 25.636719 35.261719 25.855469 C 35.457031 26.191406 35.566406 26.550781 35.488281 26.890625 C 35.265625 27.910156 33.386719 28.636719 30.46875 28.824219 C 29.613281 28.878906 28.699219 28.890625 27.730469 28.859375 C 27.097656 28.839844 26.449219 28.800781 25.777344 28.746094 C 23.660156 28.574219 21.371094 28.21875 19.035156 27.699219 C 16.78125 27.199219 14.628906 26.582031 12.691406 25.886719 C 11.925781 25.605469 11.191406 25.316406 10.496094 25.015625 C 9.667969 24.65625 8.894531 24.28125 8.191406 23.902344 C 5.625 22.496094 4.222656 21.046875 4.449219 20.027344 C 4.472656 19.910156 4.519531 19.796875 4.589844 19.691406 L 4.582031 19.6875 C 4.550781 19.652344 4.328125 19.425781 4.082031 19.050781 C 3.878906 19.296875 3.75 19.566406 3.683594 19.859375 C 3.515625 20.613281 3.832031 21.433594 4.628906 22.285156 C 5.339844 23.042969 6.410156 23.816406 7.816406 24.582031 C 8.769531 25.105469 9.84375 25.609375 11.011719 26.078125 C 11.753906 26.378906 12.542969 26.667969 13.363281 26.949219 C 15.082031 27.519531 16.9375 28.042969 18.863281 28.464844 C 21.003906 28.9375 23.113281 29.277344 25.082031 29.46875 C 25.769531 29.535156 26.441406 29.589844 27.09375 29.613281 C 27.667969 29.644531 28.222656 29.660156 28.761719 29.660156 C 29.371094 29.660156 29.957031 29.640625 30.519531 29.605469 C 32.113281 29.5 33.410156 29.25 34.375 28.863281 C 35.457031 28.425781 36.089844 27.824219 36.253906 27.0625 C 36.378906 26.511719 36.238281 25.925781 35.855469 25.324219 Z M 35.855469 25.324219 "/>
</g>
</svg>
