<?xml version="1.0" encoding="UTF-8"?>
<svg xmlns="http://www.w3.org/2000/svg" xmlns:xlink="http://www.w3.org/1999/xlink" width="30px" height="30px" viewBox="0 0 30 30" version="1.1">
<g id="surface1">
<path style=" stroke:none;fill-rule:nonzero;fill:rgb(90.196079%,90.196079%,90.196079%);fill-opacity:1;" d="M 14.664062 5.140625 C 10.367188 5.140625 6.875 8.636719 6.875 12.929688 C 6.875 16.445312 9.273438 19.550781 12.636719 20.453125 L 12.5625 18.546875 C 12.5625 18.546875 9.675781 16.578125 9.132812 15.507812 C 8.59375 14.433594 8.914062 10.714844 9.601562 9.777344 C 10.292969 8.839844 11.609375 7.445312 13.296875 7.125 C 14.980469 6.800781 16.75 7.125 18.21875 8.136719 C 19.679688 9.144531 20.339844 12.074219 20.339844 12.074219 C 20.339844 12.074219 21.5625 12.011719 22.4375 12.453125 C 22.1875 8.375 18.796875 5.140625 14.664062 5.140625 Z M 14.664062 5.140625 "/>
<path style=" stroke:none;fill-rule:nonzero;fill:rgb(100%,100%,100%);fill-opacity:1;" d="M 19.550781 10.226562 C 18.566406 8.449219 16.695312 7.34375 14.664062 7.34375 C 11.585938 7.34375 9.078125 9.851562 9.078125 12.929688 C 9.078125 15.390625 10.65625 17.53125 13 18.261719 C 13.039062 18.273438 13.070312 18.289062 13.097656 18.3125 L 19.621094 10.304688 C 19.589844 10.285156 19.566406 10.257812 19.550781 10.222656 Z M 19.550781 10.226562 "/>
<path style=" stroke:none;fill-rule:nonzero;fill:rgb(2.352941%,95.294118%,100%);fill-opacity:1;" d="M 20.0625 9.941406 C 18.972656 7.976562 16.90625 6.757812 14.664062 6.757812 C 11.261719 6.757812 8.492188 9.527344 8.492188 12.929688 C 8.492188 14.269531 8.917969 15.546875 9.71875 16.621094 C 10.492188 17.65625 11.597656 18.4375 12.824219 18.820312 C 12.855469 18.828125 12.882812 18.835938 12.914062 18.835938 C 13.039062 18.835938 13.152344 18.753906 13.191406 18.628906 C 13.226562 18.511719 13.1875 18.390625 13.097656 18.316406 C 13.070312 18.292969 13.035156 18.273438 13 18.265625 C 10.65625 17.535156 9.078125 15.390625 9.078125 12.929688 C 9.078125 9.851562 11.585938 7.347656 14.664062 7.347656 C 16.691406 7.347656 18.5625 8.453125 19.550781 10.226562 C 19.566406 10.257812 19.59375 10.289062 19.621094 10.3125 C 19.710938 10.386719 19.839844 10.398438 19.949219 10.339844 C 20.089844 10.257812 20.140625 10.082031 20.0625 9.941406 Z M 20.0625 9.941406 "/>
<path style=" stroke:none;fill-rule:nonzero;fill:rgb(0%,35.686275%,100%);fill-opacity:1;" d="M 12.921875 12.929688 C 12.921875 13.894531 13.699219 14.675781 14.664062 14.675781 C 15.625 14.675781 16.40625 13.894531 16.40625 12.929688 C 16.40625 11.96875 15.625 11.1875 14.664062 11.1875 C 13.699219 11.1875 12.921875 11.96875 12.921875 12.929688 Z M 12.921875 12.929688 "/>
<path style=" stroke:none;fill-rule:nonzero;fill:rgb(0%,35.686275%,100%);fill-opacity:1;" d="M 9.664062 23.234375 C 9.621094 23.234375 9.578125 23.226562 9.53125 23.203125 C 7.519531 22.199219 5.859375 20.636719 4.726562 18.6875 C 4.644531 18.546875 4.695312 18.367188 4.832031 18.285156 C 4.972656 18.203125 5.152344 18.25 5.234375 18.390625 C 6.308594 20.242188 7.886719 21.71875 9.792969 22.675781 C 9.9375 22.75 9.996094 22.925781 9.925781 23.070312 C 9.875 23.175781 9.769531 23.234375 9.664062 23.234375 Z M 9.664062 23.234375 "/>
<path style=" stroke:none;fill-rule:nonzero;fill:rgb(100%,100%,100%);fill-opacity:1;" d="M 23.480469 14.53125 C 23.46875 14.53125 23.453125 14.527344 23.441406 14.527344 C 23.421875 14.527344 23.398438 14.527344 23.382812 14.53125 C 23.375 14.53125 23.367188 14.535156 23.359375 14.535156 C 23.351562 14.539062 23.335938 14.539062 23.324219 14.539062 C 23.316406 14.542969 23.308594 14.546875 23.300781 14.546875 C 23.289062 14.546875 23.277344 14.550781 23.269531 14.554688 C 23.261719 14.558594 23.25 14.5625 23.242188 14.566406 C 23.234375 14.570312 23.226562 14.570312 23.21875 14.574219 C 23.207031 14.582031 23.195312 14.585938 23.1875 14.589844 L 23.167969 14.597656 C 23.15625 14.605469 23.144531 14.613281 23.132812 14.617188 C 23.128906 14.621094 23.125 14.625 23.121094 14.628906 L 23.085938 14.65625 C 23.082031 14.65625 23.078125 14.65625 23.078125 14.660156 C 23.066406 14.667969 23.054688 14.679688 23.042969 14.691406 C 23.039062 14.691406 23.039062 14.695312 23.035156 14.695312 C 23.023438 14.707031 23.011719 14.71875 23 14.734375 L 22.996094 14.738281 C 22.910156 14.839844 22.855469 14.972656 22.855469 15.113281 L 22.855469 17.8125 L 21.683594 17.8125 L 21.671875 13.230469 C 21.671875 12.90625 21.410156 12.644531 21.085938 12.644531 C 20.765625 12.644531 20.503906 12.90625 20.503906 13.226562 L 20.503906 16.582031 L 19.332031 16.582031 L 19.332031 10.9375 C 19.332031 10.613281 19.070312 10.355469 18.75 10.355469 C 18.425781 10.355469 18.167969 10.613281 18.167969 10.9375 L 18.167969 15.167969 L 16.996094 15.171875 L 16.992188 14.511719 L 16.992188 9.46875 C 16.992188 9.148438 16.730469 8.886719 16.410156 8.886719 C 16.207031 8.886719 16.023438 8.988281 15.914062 9.15625 C 15.855469 9.25 15.824219 9.359375 15.824219 9.46875 L 15.824219 18.710938 L 14.652344 18.710938 L 14.652344 14.402344 C 14.652344 14.078125 14.394531 13.820312 14.070312 13.820312 C 13.75 13.820312 13.488281 14.078125 13.488281 14.402344 L 13.488281 22.425781 C 13.488281 23.609375 14.449219 24.570312 15.632812 24.570312 L 21.882812 24.570312 C 23.066406 24.570312 24.027344 23.609375 24.027344 22.425781 L 24.027344 15.109375 C 24.019531 14.804688 23.785156 14.550781 23.480469 14.53125 Z M 23.480469 14.53125 "/>
<path style=" stroke:none;fill-rule:nonzero;fill:rgb(0%,35.686275%,100%);fill-opacity:1;" d="M 23.613281 13.367188 C 23.617188 13.222656 23.625 13.074219 23.625 12.929688 C 23.625 10.535156 22.695312 8.285156 21 6.59375 C 19.304688 4.898438 17.054688 3.96875 14.664062 3.96875 C 12.269531 3.96875 10.019531 4.898438 8.324219 6.59375 C 6.632812 8.285156 5.699219 10.535156 5.699219 12.929688 C 5.699219 13.980469 5.882812 15.011719 6.238281 15.988281 C 6.582031 16.9375 7.082031 17.816406 7.722656 18.597656 C 8.90625 20.042969 10.523438 21.089844 12.3125 21.578125 L 12.3125 22.421875 C 12.3125 24.25 13.800781 25.742188 15.628906 25.742188 L 21.878906 25.742188 C 23.707031 25.742188 25.195312 24.253906 25.195312 22.421875 L 25.195312 15.109375 C 25.191406 14.203125 24.5 13.453125 23.613281 13.363281 Z M 12.3125 20.359375 C 9.125 19.347656 6.875 16.332031 6.875 12.929688 C 6.875 8.636719 10.367188 5.140625 14.664062 5.140625 C 18.667969 5.140625 21.976562 8.183594 22.40625 12.078125 C 22.085938 11.710938 21.613281 11.476562 21.085938 11.476562 C 20.882812 11.476562 20.6875 11.511719 20.503906 11.574219 L 20.503906 10.9375 C 20.503906 9.96875 19.71875 9.179688 18.75 9.179688 C 18.542969 9.179688 18.339844 9.21875 18.152344 9.289062 C 18.0625 8.40625 17.3125 7.714844 16.40625 7.714844 C 15.800781 7.714844 15.246094 8.023438 14.921875 8.539062 C 14.914062 8.546875 14.910156 8.554688 14.90625 8.5625 C 14.828125 8.558594 14.746094 8.558594 14.664062 8.558594 C 12.253906 8.558594 10.289062 10.519531 10.289062 12.933594 C 10.289062 13.695312 10.488281 14.445312 10.859375 15.101562 C 11.210938 15.71875 11.714844 16.246094 12.316406 16.625 L 12.316406 20.359375 Z M 12.3125 14.402344 L 12.3125 15.90625 C 11.402344 15.195312 10.871094 14.109375 10.871094 12.929688 C 10.871094 10.839844 12.574219 9.140625 14.664062 9.140625 L 14.683594 9.140625 C 14.664062 9.25 14.652344 9.359375 14.652344 9.46875 L 14.652344 12.746094 C 14.46875 12.683594 14.273438 12.648438 14.070312 12.648438 C 13.101562 12.648438 12.3125 13.4375 12.3125 14.402344 Z M 24.019531 22.425781 C 24.019531 23.609375 23.058594 24.570312 21.875 24.570312 L 15.628906 24.570312 C 14.445312 24.570312 13.484375 23.609375 13.484375 22.425781 L 13.484375 14.402344 C 13.484375 14.078125 13.746094 13.820312 14.070312 13.820312 C 14.390625 13.820312 14.652344 14.078125 14.652344 14.402344 L 14.652344 18.710938 L 15.824219 18.710938 L 15.824219 9.46875 C 15.824219 9.359375 15.855469 9.25 15.910156 9.15625 C 16.019531 8.988281 16.203125 8.886719 16.40625 8.886719 C 16.726562 8.886719 16.988281 9.144531 16.988281 9.46875 L 16.988281 14.511719 L 16.992188 15.167969 L 18.164062 15.167969 L 18.164062 10.9375 C 18.164062 10.613281 18.425781 10.355469 18.746094 10.355469 C 19.070312 10.355469 19.328125 10.613281 19.328125 10.9375 L 19.328125 16.582031 L 20.5 16.582031 L 20.5 13.230469 C 20.5 12.90625 20.761719 12.648438 21.085938 12.648438 C 21.40625 12.648438 21.667969 12.90625 21.667969 13.234375 L 21.683594 17.816406 L 22.855469 17.816406 L 22.855469 15.097656 C 22.863281 14.78125 23.121094 14.53125 23.4375 14.53125 C 23.453125 14.53125 23.464844 14.53125 23.476562 14.535156 C 23.78125 14.554688 24.019531 14.804688 24.019531 15.113281 Z M 24.019531 22.425781 "/>
<path style=" stroke:none;fill-rule:nonzero;fill:rgb(0%,35.686275%,100%);fill-opacity:1;" d="M 17.617188 22.679688 L 18.511719 22.679688 L 18.511719 23.792969 L 17.617188 23.792969 Z M 19.070312 22.679688 L 19.960938 22.679688 L 19.960938 23.792969 L 19.070312 23.792969 Z M 20.964844 22.679688 L 21.859375 22.679688 L 21.859375 23.792969 L 20.964844 23.792969 Z M 20.964844 22.679688 "/>
</g>
</svg>
