<?xml version="1.0" encoding="UTF-8"?>
<svg xmlns="http://www.w3.org/2000/svg" xmlns:xlink="http://www.w3.org/1999/xlink" width="30px" height="30px" viewBox="0 0 30 30" version="1.1">
<g id="surface1">
<path style=" stroke:none;fill-rule:nonzero;fill:rgb(0%,35.686275%,100%);fill-opacity:1;" d="M 17.421875 23.449219 L 7.980469 23.449219 C 7.667969 23.449219 7.410156 23.703125 7.410156 24.015625 C 7.410156 24.332031 7.667969 24.585938 7.980469 24.585938 L 17.421875 24.585938 C 17.738281 24.585938 17.992188 24.332031 17.992188 24.015625 C 17.992188 23.703125 17.734375 23.449219 17.421875 23.449219 Z M 17.421875 23.449219 "/>
<path style=" stroke:none;fill-rule:nonzero;fill:rgb(90.196079%,90.196079%,90.196079%);fill-opacity:1;" d="M 26.746094 22.601562 L 26.746094 23.742188 L 28.359375 23.742188 C 28.121094 23.078125 27.488281 22.601562 26.746094 22.601562 Z M 26.746094 22.601562 "/>
<path style=" stroke:none;fill-rule:nonzero;fill:rgb(100%,100%,100%);fill-opacity:1;" d="M 23.894531 19.800781 L 23.894531 6.890625 C 23.894531 6.417969 23.511719 6.039062 23.042969 6.039062 L 2.359375 6.039062 C 1.890625 6.039062 1.507812 6.421875 1.507812 6.890625 L 1.507812 19.800781 C 1.507812 20.273438 1.890625 20.65625 2.359375 20.65625 L 23.042969 20.65625 C 23.515625 20.65625 23.894531 20.273438 23.894531 19.800781 Z M 22.609375 18.570312 C 22.609375 19.039062 22.226562 19.421875 21.757812 19.421875 L 3.652344 19.421875 C 3.183594 19.421875 2.796875 19.039062 2.796875 18.570312 L 2.796875 8.125 C 2.796875 7.65625 3.183594 7.273438 3.652344 7.273438 L 21.757812 7.273438 C 22.226562 7.273438 22.609375 7.65625 22.609375 8.125 Z M 22.609375 18.570312 "/>
<path style=" stroke:none;fill-rule:nonzero;fill:rgb(90.196079%,90.196079%,90.196079%);fill-opacity:1;" d="M 21.757812 7.273438 L 3.652344 7.273438 C 3.183594 7.273438 2.796875 7.65625 2.796875 8.125 L 2.796875 18.570312 C 2.796875 19.039062 3.183594 19.425781 3.652344 19.425781 L 21.757812 19.425781 C 22.226562 19.425781 22.609375 19.039062 22.609375 18.570312 L 22.609375 8.125 C 22.609375 7.65625 22.226562 7.273438 21.757812 7.273438 Z M 6.425781 8.214844 C 6.425781 8.167969 6.464844 8.132812 6.507812 8.132812 L 8.304688 8.132812 C 8.351562 8.132812 8.386719 8.171875 8.386719 8.214844 L 8.386719 8.726562 C 8.386719 8.773438 8.347656 8.808594 8.304688 8.808594 L 6.507812 8.808594 C 6.460938 8.808594 6.425781 8.773438 6.425781 8.726562 Z M 5.539062 8.113281 C 5.730469 8.113281 5.886719 8.265625 5.886719 8.460938 C 5.886719 8.652344 5.730469 8.808594 5.539062 8.808594 C 5.34375 8.808594 5.1875 8.652344 5.1875 8.460938 C 5.1875 8.265625 5.347656 8.113281 5.539062 8.113281 Z M 4.394531 8.113281 C 4.589844 8.113281 4.742188 8.265625 4.742188 8.460938 C 4.742188 8.652344 4.589844 8.808594 4.394531 8.808594 C 4.203125 8.808594 4.046875 8.652344 4.046875 8.460938 C 4.046875 8.265625 4.203125 8.113281 4.394531 8.113281 Z M 11.347656 13.433594 C 11.347656 15.421875 9.730469 17.039062 7.742188 17.039062 C 5.757812 17.039062 4.140625 15.421875 4.140625 13.433594 C 4.140625 11.449219 5.757812 9.832031 7.742188 9.832031 L 8.027344 9.832031 L 8.027344 13.152344 L 11.347656 13.152344 Z M 8.707031 12.300781 L 8.707031 9.527344 C 10.238281 9.527344 11.480469 10.769531 11.480469 12.300781 Z M 19.652344 16.664062 L 15.53125 16.664062 C 15.371094 16.664062 15.246094 16.539062 15.246094 16.378906 C 15.246094 16.222656 15.371094 16.09375 15.53125 16.09375 L 19.652344 16.09375 C 19.808594 16.09375 19.9375 16.222656 19.9375 16.378906 C 19.9375 16.535156 19.8125 16.664062 19.652344 16.664062 Z M 19.652344 14.515625 L 15.386719 14.515625 C 15.230469 14.515625 15.101562 14.390625 15.101562 14.230469 C 15.101562 14.074219 15.226562 13.949219 15.386719 13.949219 L 19.652344 13.949219 C 19.8125 13.949219 19.9375 14.074219 19.9375 14.230469 C 19.9375 14.390625 19.8125 14.515625 19.652344 14.515625 Z M 19.652344 12.367188 L 13.511719 12.367188 C 13.351562 12.367188 13.226562 12.238281 13.226562 12.082031 C 13.226562 11.921875 13.351562 11.796875 13.511719 11.796875 L 19.65625 11.796875 C 19.8125 11.796875 19.9375 11.921875 19.9375 12.082031 C 19.9375 12.238281 19.8125 12.367188 19.652344 12.367188 Z M 19.652344 10.21875 L 13.511719 10.21875 C 13.351562 10.21875 13.226562 10.09375 13.226562 9.933594 C 13.226562 9.777344 13.351562 9.648438 13.511719 9.648438 L 19.65625 9.648438 C 19.8125 9.648438 19.9375 9.777344 19.9375 9.933594 C 19.9375 10.09375 19.8125 10.21875 19.652344 10.21875 Z M 19.652344 10.21875 "/>
<path style=" stroke:none;fill-rule:nonzero;fill:rgb(100%,100%,100%);fill-opacity:1;" d="M 7.460938 10.414062 C 5.917969 10.558594 4.707031 11.859375 4.707031 13.4375 C 4.707031 15.109375 6.070312 16.46875 7.742188 16.46875 C 9.320312 16.46875 10.621094 15.261719 10.765625 13.71875 L 7.460938 13.71875 Z M 7.460938 10.414062 "/>
<path style=" stroke:none;fill-rule:nonzero;fill:rgb(0%,35.686275%,100%);fill-opacity:1;" d="M 8.027344 9.832031 L 7.742188 9.832031 C 5.757812 9.832031 4.140625 11.449219 4.140625 13.4375 C 4.140625 15.421875 5.757812 17.039062 7.742188 17.039062 C 9.730469 17.039062 11.347656 15.421875 11.347656 13.4375 L 11.347656 13.152344 L 8.027344 13.152344 Z M 10.765625 13.722656 C 10.621094 15.265625 9.320312 16.472656 7.742188 16.472656 C 6.070312 16.472656 4.707031 15.113281 4.707031 13.4375 C 4.707031 11.863281 5.917969 10.5625 7.457031 10.417969 L 7.457031 13.722656 Z M 10.765625 13.722656 "/>
<path style=" stroke:none;fill-rule:nonzero;fill:rgb(0%,35.686275%,100%);fill-opacity:1;" d="M 8.707031 9.527344 L 8.707031 12.300781 L 11.480469 12.300781 C 11.480469 10.769531 10.238281 9.527344 8.707031 9.527344 Z M 8.707031 9.527344 "/>
<path style=" stroke:none;fill-rule:nonzero;fill:rgb(100%,100%,100%);fill-opacity:1;" d="M 4.046875 8.460938 C 4.046875 8.652344 4.203125 8.808594 4.394531 8.808594 C 4.585938 8.808594 4.742188 8.652344 4.742188 8.460938 C 4.742188 8.269531 4.585938 8.113281 4.394531 8.113281 C 4.203125 8.113281 4.046875 8.269531 4.046875 8.460938 Z M 4.046875 8.460938 "/>
<path style=" stroke:none;fill-rule:nonzero;fill:rgb(100%,100%,100%);fill-opacity:1;" d="M 5.1875 8.460938 C 5.1875 8.652344 5.34375 8.808594 5.539062 8.808594 C 5.730469 8.808594 5.886719 8.652344 5.886719 8.460938 C 5.886719 8.269531 5.730469 8.113281 5.539062 8.113281 C 5.34375 8.113281 5.1875 8.269531 5.1875 8.460938 Z M 5.1875 8.460938 "/>
<path style=" stroke:none;fill-rule:nonzero;fill:rgb(100%,100%,100%);fill-opacity:1;" d="M 6.507812 8.808594 L 8.304688 8.808594 C 8.351562 8.808594 8.382812 8.773438 8.382812 8.726562 L 8.382812 8.214844 C 8.382812 8.167969 8.347656 8.132812 8.304688 8.132812 L 6.507812 8.132812 C 6.460938 8.132812 6.425781 8.171875 6.425781 8.214844 L 6.425781 8.726562 C 6.425781 8.773438 6.460938 8.808594 6.507812 8.808594 Z M 6.507812 8.808594 "/>
<path style=" stroke:none;fill-rule:nonzero;fill:rgb(0%,35.686275%,100%);fill-opacity:1;" d="M 26.746094 21.460938 C 25.367188 21.460938 24.21875 22.441406 23.953125 23.738281 L 20.5625 23.738281 C 20.21875 23.738281 19.972656 23.671875 19.882812 23.554688 C 19.824219 23.476562 19.824219 23.351562 19.824219 23.289062 L 19.824219 21.792969 L 23.042969 21.792969 C 24.144531 21.792969 25.035156 20.898438 25.035156 19.804688 L 25.035156 6.890625 C 25.035156 5.792969 24.140625 4.902344 23.042969 4.902344 L 2.359375 4.902344 C 1.261719 4.902344 0.371094 5.792969 0.371094 6.890625 L 0.371094 19.800781 C 0.371094 20.898438 1.265625 21.789062 2.359375 21.789062 L 18.6875 21.789062 L 18.6875 23.289062 C 18.6875 23.429688 18.6875 23.855469 18.976562 24.242188 C 19.292969 24.664062 19.828125 24.875 20.5625 24.875 L 29.59375 24.875 L 29.59375 24.308594 C 29.59375 22.738281 28.316406 21.460938 26.746094 21.460938 Z M 2.359375 20.65625 C 1.890625 20.65625 1.507812 20.273438 1.507812 19.804688 L 1.507812 6.890625 C 1.507812 6.417969 1.890625 6.039062 2.359375 6.039062 L 23.042969 6.039062 C 23.515625 6.039062 23.894531 6.421875 23.894531 6.890625 L 23.894531 19.800781 C 23.894531 20.273438 23.511719 20.65625 23.042969 20.65625 Z M 26.746094 23.738281 L 25.132812 23.738281 C 25.367188 23.074219 26 22.597656 26.746094 22.597656 C 27.488281 22.597656 28.125 23.074219 28.359375 23.738281 Z M 26.746094 23.738281 "/>
<path style=" stroke:none;fill-rule:nonzero;fill:rgb(0%,35.686275%,100%);fill-opacity:1;" d="M 19.652344 9.648438 L 13.511719 9.648438 C 13.351562 9.648438 13.226562 9.777344 13.226562 9.933594 C 13.226562 10.09375 13.351562 10.21875 13.511719 10.21875 L 19.65625 10.21875 C 19.8125 10.21875 19.9375 10.09375 19.9375 9.933594 C 19.9375 9.777344 19.8125 9.648438 19.652344 9.648438 Z M 19.652344 9.648438 "/>
<path style=" stroke:none;fill-rule:nonzero;fill:rgb(2.352941%,95.294118%,100%);fill-opacity:1;" d="M 19.652344 11.796875 L 13.511719 11.796875 C 13.351562 11.796875 13.226562 11.921875 13.226562 12.082031 C 13.226562 12.238281 13.351562 12.367188 13.511719 12.367188 L 19.65625 12.367188 C 19.8125 12.367188 19.9375 12.238281 19.9375 12.082031 C 19.9375 11.921875 19.8125 11.796875 19.652344 11.796875 Z M 19.652344 13.949219 L 15.386719 13.949219 C 15.230469 13.949219 15.101562 14.074219 15.101562 14.234375 C 15.101562 14.390625 15.226562 14.515625 15.386719 14.515625 L 19.652344 14.515625 C 19.8125 14.515625 19.9375 14.390625 19.9375 14.234375 C 19.9375 14.074219 19.8125 13.949219 19.652344 13.949219 Z M 19.652344 13.949219 "/>
<path style=" stroke:none;fill-rule:nonzero;fill:rgb(0%,35.686275%,100%);fill-opacity:1;" d="M 19.652344 16.09375 L 15.53125 16.09375 C 15.371094 16.09375 15.246094 16.222656 15.246094 16.378906 C 15.246094 16.539062 15.371094 16.664062 15.53125 16.664062 L 19.652344 16.664062 C 19.808594 16.664062 19.9375 16.539062 19.9375 16.378906 C 19.9375 16.222656 19.8125 16.09375 19.652344 16.09375 Z M 19.652344 16.09375 "/>
</g>
</svg>
