<?xml version="1.0" encoding="UTF-8"?>
<svg xmlns="http://www.w3.org/2000/svg" xmlns:xlink="http://www.w3.org/1999/xlink" width="30px" height="30px" viewBox="0 0 30 30" version="1.1">
<g id="surface1">
<path style=" stroke:none;fill-rule:nonzero;fill:rgb(0%,0%,0%);fill-opacity:1;" d="M 28.355469 12.035156 L 26.765625 12.035156 C 26.46875 10.882812 26.007812 9.804688 25.40625 8.816406 L 26.550781 7.671875 C 26.859375 7.363281 27.027344 6.949219 27.027344 6.511719 C 27.027344 6.074219 26.859375 5.664062 26.550781 5.355469 L 24.644531 3.453125 C 24.027344 2.832031 22.945312 2.835938 22.332031 3.453125 L 21.140625 4.636719 C 20.164062 4.066406 19.117188 3.628906 17.964844 3.347656 L 17.964844 1.644531 C 17.964844 0.742188 17.242188 0 16.339844 0 L 13.648438 0 C 12.746094 0 12.035156 0.742188 12.035156 1.644531 L 12.035156 3.34375 C 10.882812 3.625 9.828125 4.066406 8.851562 4.636719 L 7.660156 3.453125 C 7.042969 2.832031 5.960938 2.832031 5.34375 3.449219 L 3.4375 5.355469 C 3.132812 5.660156 2.960938 6.082031 2.960938 6.511719 C 2.960938 6.949219 3.128906 7.359375 3.4375 7.667969 L 4.582031 8.816406 C 3.980469 9.804688 3.519531 10.882812 3.222656 12.035156 L 1.632812 12.035156 C 0.730469 12.035156 0 12.761719 0 13.660156 L 0 16.351562 C 0 17.257812 0.730469 17.964844 1.632812 17.964844 L 3.222656 17.964844 C 3.519531 19.117188 3.980469 20.203125 4.578125 21.191406 L 3.4375 22.339844 C 3.128906 22.648438 2.957031 23.0625 2.957031 23.5 C 2.957031 23.9375 3.128906 24.351562 3.4375 24.660156 L 5.34375 26.5625 C 5.652344 26.871094 6.0625 27.042969 6.5 27.042969 C 6.933594 27.042969 7.347656 26.871094 7.65625 26.5625 L 8.851562 25.378906 C 9.828125 25.949219 10.882812 26.386719 12.035156 26.671875 L 12.035156 28.371094 C 12.035156 29.273438 12.746094 30 13.648438 30 L 16.339844 30 C 17.242188 30 17.964844 29.273438 17.964844 28.371094 L 17.964844 26.667969 C 19.117188 26.386719 20.164062 25.949219 21.140625 25.378906 L 22.328125 26.5625 C 22.636719 26.871094 23.046875 27.042969 23.484375 27.042969 C 23.921875 27.042969 24.335938 26.871094 24.644531 26.5625 L 26.546875 24.660156 C 26.855469 24.351562 27.027344 23.941406 27.027344 23.503906 C 27.027344 23.066406 26.855469 22.65625 26.546875 22.347656 L 25.40625 21.191406 C 26.007812 20.203125 26.46875 19.117188 26.765625 17.964844 L 28.355469 17.964844 C 29.257812 17.964844 30 17.257812 30 16.351562 L 30 13.660156 C 30 12.761719 29.257812 12.035156 28.355469 12.035156 Z M 14.992188 20.132812 C 12.136719 20.132812 9.820312 17.835938 9.820312 15.007812 C 9.820312 12.175781 12.136719 9.886719 14.992188 9.886719 C 17.851562 9.886719 20.167969 12.175781 20.167969 15.007812 C 20.167969 17.835938 17.851562 20.132812 14.992188 20.132812 Z M 14.992188 20.132812 "/>
</g>
</svg>
