<?xml version="1.0" encoding="UTF-8"?>
<svg xmlns="http://www.w3.org/2000/svg" xmlns:xlink="http://www.w3.org/1999/xlink" width="30px" height="30px" viewBox="0 0 30 30" version="1.1">
<g id="surface1">
<path style=" stroke:none;fill-rule:nonzero;fill:rgb(0%,35.686275%,100%);fill-opacity:1;" d="M 12.691406 23.929688 C 12.273438 23.929688 11.9375 23.589844 11.9375 23.171875 C 11.9375 22.757812 12.273438 22.417969 12.691406 22.417969 C 13.109375 22.417969 13.445312 22.757812 13.445312 23.171875 C 13.449219 23.589844 13.109375 23.929688 12.691406 23.929688 Z M 12.691406 23.929688 "/>
<path style=" stroke:none;fill-rule:nonzero;fill:rgb(90.196079%,90.196079%,90.196079%);fill-opacity:1;" d="M 17.59375 21.582031 C 17.59375 21.734375 17.46875 21.855469 17.320312 21.855469 L 8.0625 21.855469 C 7.914062 21.855469 7.789062 21.734375 7.789062 21.582031 L 7.789062 7.628906 C 7.789062 7.480469 7.914062 7.355469 8.0625 7.355469 L 17.316406 7.355469 C 17.46875 7.355469 17.589844 7.480469 17.589844 7.628906 L 17.589844 21.582031 Z M 17.59375 21.582031 "/>
<path style=" stroke:none;fill-rule:nonzero;fill:rgb(100%,100%,100%);fill-opacity:1;" d="M 8.84375 10.375 C 8.445312 10.375 8.117188 10.703125 8.117188 11.101562 C 8.117188 11.5 8.445312 11.824219 8.84375 11.824219 C 9.242188 11.824219 9.566406 11.5 9.566406 11.101562 C 9.566406 10.703125 9.242188 10.375 8.84375 10.375 Z M 23.554688 16.929688 C 22.695312 16.929688 21.992188 17.632812 21.992188 18.492188 C 21.992188 19.351562 22.695312 20.054688 23.554688 20.054688 C 24.414062 20.054688 25.117188 19.351562 25.117188 18.492188 C 25.117188 17.632812 24.414062 16.929688 23.554688 16.929688 Z M 23.554688 16.929688 "/>
<path style=" stroke:none;fill-rule:nonzero;fill:rgb(0%,35.686275%,100%);fill-opacity:1;" d="M 23.554688 16.34375 C 22.367188 16.34375 21.40625 17.304688 21.40625 18.492188 C 21.40625 19.679688 22.367188 20.640625 23.554688 20.640625 C 24.742188 20.640625 25.703125 19.679688 25.703125 18.492188 C 25.703125 17.304688 24.742188 16.34375 23.554688 16.34375 Z M 21.992188 18.492188 C 21.992188 17.632812 22.695312 16.929688 23.554688 16.929688 C 24.414062 16.929688 25.117188 17.632812 25.117188 18.492188 C 25.117188 19.351562 24.414062 20.054688 23.554688 20.054688 C 22.691406 20.054688 21.992188 19.351562 21.992188 18.492188 Z M 21.992188 18.492188 "/>
<path style=" stroke:none;fill-rule:nonzero;fill:rgb(100%,100%,100%);fill-opacity:1;" d="M 10.714844 15.996094 C 10.378906 15.996094 10.109375 16.265625 10.109375 16.601562 C 10.109375 16.933594 10.378906 17.203125 10.714844 17.203125 C 11.046875 17.203125 11.316406 16.933594 11.316406 16.601562 C 11.316406 16.265625 11.046875 15.996094 10.714844 15.996094 Z M 3.757812 12.34375 C 3.359375 12.34375 3.035156 12.667969 3.035156 13.066406 C 3.035156 13.464844 3.359375 13.789062 3.757812 13.789062 C 4.15625 13.789062 4.484375 13.464844 4.484375 13.066406 C 4.484375 12.667969 4.15625 12.34375 3.757812 12.34375 Z M 3.757812 12.34375 "/>
<path style=" stroke:none;fill-rule:nonzero;fill:rgb(0%,35.686275%,100%);fill-opacity:1;" d="M 5.609375 12.148438 C 5.554688 11.996094 5.390625 11.914062 5.234375 11.960938 L 4.6875 12.148438 C 4.449219 11.90625 4.121094 11.757812 3.757812 11.757812 C 3.035156 11.757812 2.445312 12.34375 2.445312 13.066406 C 2.445312 13.789062 3.03125 14.375 3.757812 14.375 C 4.480469 14.375 5.066406 13.789062 5.066406 13.066406 C 5.066406 12.925781 5.042969 12.789062 5 12.664062 L 5.421875 12.523438 C 5.574219 12.464844 5.65625 12.300781 5.609375 12.144531 Z M 3.757812 13.789062 C 3.359375 13.789062 3.035156 13.460938 3.035156 13.0625 C 3.035156 12.664062 3.359375 12.339844 3.757812 12.339844 C 4.15625 12.339844 4.484375 12.664062 4.484375 13.0625 C 4.484375 13.460938 4.15625 13.789062 3.757812 13.789062 Z M 9.648438 12.523438 L 9.546875 12.199219 C 9.90625 11.964844 10.148438 11.558594 10.148438 11.101562 C 10.148438 10.378906 9.5625 9.789062 8.839844 9.789062 C 8.117188 9.789062 7.53125 10.375 7.53125 11.101562 C 7.53125 11.824219 8.117188 12.410156 8.839844 12.410156 C 8.890625 12.410156 8.945312 12.40625 8.992188 12.402344 L 9.085938 12.699219 C 9.125 12.824219 9.242188 12.90625 9.367188 12.90625 C 9.394531 12.90625 9.425781 12.898438 9.453125 12.890625 C 9.617188 12.839844 9.699219 12.671875 9.648438 12.519531 Z M 9.109375 11.769531 C 9.097656 11.773438 9.085938 11.78125 9.074219 11.78125 C 9.003906 11.808594 8.921875 11.824219 8.839844 11.824219 C 8.441406 11.824219 8.117188 11.5 8.117188 11.101562 C 8.117188 10.703125 8.445312 10.375 8.839844 10.375 C 9.238281 10.375 9.566406 10.703125 9.566406 11.101562 C 9.566406 11.402344 9.375 11.664062 9.109375 11.769531 Z M 9.902344 14.578125 C 9.929688 14.578125 9.960938 14.574219 9.992188 14.5625 C 10.144531 14.515625 10.230469 14.351562 10.179688 14.195312 L 10.003906 13.636719 C 9.953125 13.484375 9.789062 13.398438 9.640625 13.445312 C 9.484375 13.496094 9.398438 13.660156 9.449219 13.8125 L 9.625 14.375 C 9.664062 14.5 9.777344 14.578125 9.902344 14.578125 Z M 12.832031 14.800781 L 12.597656 14.980469 C 12.46875 15.078125 12.441406 15.261719 12.542969 15.390625 C 12.601562 15.464844 12.6875 15.503906 12.777344 15.503906 C 12.839844 15.503906 12.898438 15.484375 12.953125 15.445312 L 13.1875 15.265625 C 13.316406 15.167969 13.34375 14.984375 13.242188 14.855469 C 13.144531 14.726562 12.960938 14.703125 12.832031 14.800781 Z M 15.574219 13.085938 C 15.476562 12.957031 15.292969 12.929688 15.164062 13.027344 L 14.929688 13.207031 C 14.800781 13.304688 14.773438 13.488281 14.875 13.617188 C 14.933594 13.695312 15.019531 13.730469 15.109375 13.730469 C 15.171875 13.730469 15.230469 13.710938 15.285156 13.671875 L 15.519531 13.492188 C 15.648438 13.398438 15.671875 13.210938 15.574219 13.085938 Z M 14 13.914062 L 13.765625 14.09375 C 13.636719 14.1875 13.609375 14.375 13.707031 14.5 C 13.765625 14.578125 13.855469 14.617188 13.941406 14.617188 C 14.003906 14.617188 14.066406 14.59375 14.117188 14.558594 L 14.351562 14.378906 C 14.480469 14.28125 14.507812 14.097656 14.40625 13.96875 C 14.3125 13.84375 14.125 13.816406 14 13.914062 Z M 11.664062 15.6875 L 11.558594 15.769531 C 11.34375 15.546875 11.042969 15.410156 10.714844 15.410156 C 10.664062 15.410156 10.617188 15.414062 10.570312 15.417969 L 10.539062 15.3125 C 10.488281 15.15625 10.324219 15.074219 10.167969 15.121094 C 10.011719 15.171875 9.929688 15.335938 9.976562 15.492188 L 10.023438 15.636719 C 9.71875 15.851562 9.523438 16.203125 9.523438 16.601562 C 9.523438 17.257812 10.058594 17.792969 10.714844 17.792969 C 11.371094 17.792969 11.902344 17.257812 11.902344 16.601562 C 11.902344 16.492188 11.890625 16.382812 11.859375 16.28125 L 12.019531 16.15625 C 12.148438 16.058594 12.175781 15.875 12.078125 15.746094 C 11.980469 15.613281 11.792969 15.589844 11.664062 15.6875 Z M 10.109375 16.601562 C 10.109375 16.265625 10.378906 15.996094 10.714844 15.996094 C 11.046875 15.996094 11.316406 16.265625 11.316406 16.601562 C 11.316406 16.933594 11.046875 17.203125 10.714844 17.203125 C 10.378906 17.203125 10.109375 16.933594 10.109375 16.601562 Z M 10.109375 16.601562 "/>
<path style=" stroke:none;fill-rule:nonzero;fill:rgb(0%,35.686275%,100%);fill-opacity:1;" d="M 25.304688 12.152344 L 19.539062 12.152344 L 19.539062 6.292969 C 19.539062 5.070312 18.542969 4.070312 17.316406 4.070312 L 8.0625 4.070312 C 6.835938 4.070312 5.839844 5.070312 5.839844 6.292969 L 5.839844 23.445312 C 5.839844 24.667969 6.835938 25.664062 8.0625 25.664062 L 25.304688 25.664062 C 26.527344 25.664062 27.523438 24.679688 27.523438 23.46875 L 27.523438 14.351562 C 27.527344 13.136719 26.53125 12.152344 25.304688 12.152344 Z M 17.320312 24.492188 L 8.0625 24.492188 C 7.484375 24.492188 7.015625 24.023438 7.015625 23.445312 L 7.015625 11.984375 L 7.085938 11.960938 C 7.238281 11.90625 7.320312 11.742188 7.273438 11.585938 C 7.234375 11.472656 7.128906 11.398438 7.015625 11.386719 L 7.015625 6.296875 C 7.015625 5.71875 7.484375 5.246094 8.066406 5.246094 L 17.320312 5.246094 C 17.898438 5.246094 18.367188 5.714844 18.367188 6.296875 L 18.367188 12.742188 C 18.3125 12.75 18.253906 12.773438 18.207031 12.8125 C 18.085938 12.917969 18.070312 13.101562 18.175781 13.226562 L 18.367188 13.449219 L 18.367188 23.445312 C 18.367188 24.023438 17.898438 24.492188 17.320312 24.492188 Z M 26.355469 23.46875 C 26.355469 24.035156 25.886719 24.492188 25.308594 24.492188 L 19.277344 24.492188 C 19.445312 24.179688 19.539062 23.824219 19.539062 23.445312 L 19.539062 14.664062 C 19.609375 14.664062 19.675781 14.640625 19.726562 14.59375 C 19.851562 14.488281 19.867188 14.304688 19.761719 14.179688 L 19.570312 13.957031 C 19.5625 13.945312 19.550781 13.9375 19.539062 13.925781 L 19.539062 13.324219 L 25.304688 13.324219 C 25.882812 13.324219 26.355469 13.785156 26.355469 14.347656 Z M 26.355469 23.46875 "/>
<path style=" stroke:none;fill-rule:nonzero;fill:rgb(0%,35.686275%,100%);fill-opacity:1;" d="M 21.472656 16.1875 C 21.367188 16.0625 21.179688 16.046875 21.058594 16.15625 C 20.933594 16.257812 20.921875 16.445312 21.027344 16.566406 L 21.214844 16.789062 C 21.273438 16.859375 21.355469 16.890625 21.4375 16.890625 C 21.507812 16.890625 21.574219 16.871094 21.628906 16.820312 C 21.753906 16.71875 21.765625 16.53125 21.664062 16.410156 Z M 20.519531 15.074219 C 20.414062 14.949219 20.230469 14.9375 20.105469 15.039062 C 19.984375 15.148438 19.96875 15.332031 20.074219 15.453125 L 20.265625 15.675781 C 20.324219 15.742188 20.40625 15.78125 20.488281 15.78125 C 20.554688 15.78125 20.621094 15.757812 20.679688 15.710938 C 20.800781 15.601562 20.816406 15.417969 20.710938 15.296875 Z M 20.519531 15.074219 "/>
<path style=" stroke:none;fill-rule:nonzero;fill:rgb(2.352941%,95.294118%,100%);fill-opacity:1;" d="M 14.464844 6.53125 L 10.917969 6.53125 C 10.757812 6.53125 10.625 6.402344 10.625 6.242188 C 10.625 6.078125 10.757812 5.945312 10.917969 5.945312 L 14.464844 5.945312 C 14.625 5.945312 14.757812 6.078125 14.757812 6.242188 C 14.757812 6.402344 14.625 6.53125 14.464844 6.53125 Z M 14.464844 6.53125 "/>
<path style=" stroke:none;fill-rule:nonzero;fill:rgb(100%,100%,100%);fill-opacity:1;" d="M 17.5 9.378906 C 16.515625 9.378906 15.714844 10.179688 15.714844 11.164062 C 15.714844 12.144531 16.515625 12.945312 17.5 12.945312 C 18.484375 12.945312 19.28125 12.144531 19.28125 11.164062 C 19.28125 10.179688 18.484375 9.378906 17.5 9.378906 Z M 17.5 9.378906 "/>
<path style=" stroke:none;fill-rule:nonzero;fill:rgb(0%,35.686275%,100%);fill-opacity:1;" d="M 17.5 8.792969 C 16.191406 8.792969 15.128906 9.855469 15.128906 11.164062 C 15.128906 12.46875 16.191406 13.53125 17.5 13.53125 C 18.804688 13.53125 19.867188 12.46875 19.867188 11.164062 C 19.867188 9.855469 18.804688 8.792969 17.5 8.792969 Z M 15.71875 11.164062 C 15.71875 10.179688 16.515625 9.378906 17.5 9.378906 C 18.484375 9.378906 19.285156 10.179688 19.285156 11.164062 C 19.285156 12.144531 18.484375 12.945312 17.5 12.945312 C 16.515625 12.945312 15.71875 12.144531 15.71875 11.164062 Z M 15.71875 11.164062 "/>
</g>
</svg>
