<?xml version="1.0" encoding="UTF-8"?>
<svg xmlns="http://www.w3.org/2000/svg" xmlns:xlink="http://www.w3.org/1999/xlink" width="30px" height="30px" viewBox="0 0 30 30" version="1.1">
<g id="surface1">
<path style=" stroke:none;fill-rule:nonzero;fill:rgb(100%,100%,100%);fill-opacity:1;" d="M 13.007812 3.992188 L 3.625 9.515625 L 3.71875 20.398438 L 13.191406 25.761719 L 22.574219 20.238281 L 22.480469 9.355469 Z M 13.007812 3.992188 "/>
<path style=" stroke:none;fill-rule:nonzero;fill:rgb(2.352941%,95.294118%,100%);fill-opacity:1;" d="M 18.457031 8.425781 L 17.867188 8.09375 L 9.671875 12.917969 L 9.757812 22.46875 L 10.34375 22.800781 L 10.261719 13.25 Z M 18.457031 8.425781 "/>
<path style=" stroke:none;fill-rule:nonzero;fill:rgb(0%,35.686275%,100%);fill-opacity:1;" d="M 21.878906 14.351562 L 21.625 14.5 C 21.488281 14.585938 21.445312 14.765625 21.527344 14.902344 C 21.582031 14.992188 21.679688 15.042969 21.78125 15.042969 C 21.832031 15.042969 21.882812 15.03125 21.929688 15.003906 L 22.183594 14.851562 C 22.320312 14.765625 22.367188 14.585938 22.28125 14.449219 C 22.199219 14.3125 22.019531 14.269531 21.878906 14.351562 Z M 21.878906 14.351562 "/>
<path style=" stroke:none;fill-rule:nonzero;fill:rgb(90.196079%,90.196079%,90.196079%);fill-opacity:1;" d="M 18.710938 15.644531 C 18.664062 15.617188 18.609375 15.605469 18.554688 15.605469 C 18.414062 15.605469 18.265625 15.683594 18.175781 15.742188 C 17.570312 16.121094 17.0625 17.132812 17.0625 17.945312 C 17.0625 18.300781 17.164062 18.570312 17.328125 18.664062 C 17.503906 18.757812 17.738281 18.644531 17.863281 18.566406 C 18.464844 18.183594 18.976562 17.175781 18.976562 16.363281 C 18.976562 16.003906 18.875 15.738281 18.710938 15.644531 Z M 18.417969 17.121094 L 18.167969 17.273438 C 18.121094 17.304688 18.066406 17.3125 18.015625 17.3125 C 17.914062 17.3125 17.816406 17.265625 17.761719 17.171875 C 17.679688 17.035156 17.726562 16.855469 17.863281 16.773438 L 18.113281 16.621094 C 18.25 16.535156 18.433594 16.582031 18.515625 16.71875 C 18.601562 16.859375 18.558594 17.039062 18.417969 17.121094 Z M 18.417969 17.121094 "/>
<path style=" stroke:none;fill-rule:nonzero;fill:rgb(90.196079%,90.196079%,90.196079%);fill-opacity:1;" d="M 18.117188 16.621094 L 17.867188 16.773438 C 17.726562 16.859375 17.683594 17.035156 17.765625 17.171875 C 17.820312 17.265625 17.917969 17.3125 18.015625 17.3125 C 18.070312 17.3125 18.121094 17.300781 18.171875 17.273438 L 18.421875 17.121094 C 18.558594 17.035156 18.605469 16.859375 18.523438 16.71875 C 18.4375 16.582031 18.253906 16.535156 18.117188 16.621094 Z M 18.117188 16.621094 "/>
<path style=" stroke:none;fill-rule:nonzero;fill:rgb(0%,35.686275%,100%);fill-opacity:1;" d="M 13.007812 3.992188 L 3.625 9.515625 L 3.71875 20.398438 L 13.191406 25.761719 L 22.570312 20.238281 L 22.476562 9.355469 Z M 4.886719 19.714844 L 4.804688 10.183594 L 13.015625 5.347656 L 15.101562 6.527344 L 6.890625 11.363281 L 6.972656 20.894531 Z M 12.585938 24.070312 L 10.34375 22.800781 L 9.757812 22.46875 L 7.5625 21.226562 L 7.480469 11.699219 L 15.695312 6.863281 L 17.867188 8.09375 L 18.457031 8.425781 L 20.738281 9.714844 L 12.503906 14.5625 Z M 13.757812 24.070312 L 13.679688 15.226562 L 21.320312 10.730469 L 21.394531 19.570312 Z M 22.183594 14.851562 L 21.929688 15.003906 C 21.882812 15.03125 21.832031 15.042969 21.78125 15.042969 C 21.679688 15.042969 21.582031 14.992188 21.527344 14.902344 C 21.441406 14.765625 21.488281 14.582031 21.625 14.5 L 21.878906 14.347656 C 22.015625 14.265625 22.199219 14.3125 22.28125 14.449219 C 22.367188 14.585938 22.320312 14.769531 22.183594 14.851562 Z M 22.183594 14.851562 "/>
<path style=" stroke:none;fill-rule:nonzero;fill:rgb(0%,35.686275%,100%);fill-opacity:1;" d="M 20.625 15.105469 L 20.375 15.257812 C 20.234375 15.34375 20.191406 15.523438 20.273438 15.660156 C 20.328125 15.75 20.425781 15.800781 20.523438 15.800781 C 20.578125 15.800781 20.628906 15.785156 20.679688 15.757812 L 20.929688 15.605469 C 21.066406 15.523438 21.113281 15.34375 21.03125 15.203125 C 20.945312 15.066406 20.765625 15.023438 20.625 15.105469 Z M 24.234375 12.621094 C 24.074219 12.621094 23.941406 12.753906 23.941406 12.914062 L 23.941406 13.207031 C 23.941406 13.367188 24.074219 13.5 24.234375 13.5 C 24.394531 13.5 24.527344 13.367188 24.527344 13.207031 L 24.527344 12.914062 C 24.527344 12.753906 24.394531 12.621094 24.234375 12.621094 Z M 24.527344 11.449219 C 24.527344 11.289062 24.394531 11.15625 24.234375 11.15625 C 24.074219 11.15625 23.941406 11.289062 23.941406 11.449219 L 23.941406 11.742188 C 23.941406 11.902344 24.074219 12.035156 24.234375 12.035156 C 24.394531 12.035156 24.527344 11.902344 24.527344 11.742188 Z M 24.527344 9.984375 C 24.527344 9.824219 24.394531 9.691406 24.234375 9.691406 C 24.074219 9.691406 23.941406 9.824219 23.941406 9.984375 L 23.941406 10.277344 C 23.941406 10.4375 24.074219 10.570312 24.234375 10.570312 C 24.394531 10.570312 24.527344 10.4375 24.527344 10.277344 Z M 24.527344 8.519531 C 24.527344 8.359375 24.394531 8.226562 24.234375 8.226562 C 24.074219 8.226562 23.941406 8.359375 23.941406 8.519531 L 23.941406 8.8125 C 23.941406 8.972656 24.074219 9.105469 24.234375 9.105469 C 24.394531 9.105469 24.527344 8.972656 24.527344 8.8125 Z M 23.539062 13.695312 C 23.453125 13.554688 23.273438 13.507812 23.136719 13.59375 L 22.882812 13.746094 C 22.746094 13.832031 22.703125 14.007812 22.785156 14.148438 C 22.839844 14.238281 22.9375 14.289062 23.035156 14.289062 C 23.089844 14.289062 23.140625 14.273438 23.1875 14.246094 L 23.441406 14.09375 C 23.574219 14.011719 23.617188 13.832031 23.539062 13.695312 Z M 19.492188 15.824219 C 19.402344 15.507812 19.230469 15.265625 18.988281 15.132812 C 18.660156 14.953125 18.265625 14.992188 17.863281 15.246094 C 17.085938 15.738281 16.476562 16.921875 16.476562 17.945312 C 16.476562 18.527344 16.683594 18.976562 17.046875 19.175781 C 17.183594 19.25 17.328125 19.285156 17.484375 19.285156 C 17.703125 19.285156 17.941406 19.210938 18.179688 19.058594 C 18.9375 18.578125 19.539062 17.4375 19.5625 16.433594 L 19.679688 16.363281 C 19.816406 16.277344 19.859375 16.097656 19.777344 15.960938 C 19.714844 15.859375 19.597656 15.8125 19.492188 15.824219 Z M 17.863281 18.570312 C 17.738281 18.648438 17.503906 18.761719 17.328125 18.664062 C 17.160156 18.574219 17.0625 18.304688 17.0625 17.945312 C 17.0625 17.136719 17.570312 16.125 18.175781 15.742188 C 18.265625 15.6875 18.414062 15.609375 18.554688 15.609375 C 18.609375 15.609375 18.660156 15.621094 18.707031 15.648438 C 18.875 15.738281 18.976562 16.007812 18.976562 16.363281 C 18.976562 17.175781 18.464844 18.183594 17.863281 18.570312 Z M 17.863281 18.570312 "/>
<path style=" stroke:none;fill-rule:nonzero;fill:rgb(0%,35.686275%,100%);fill-opacity:1;" d="M 26.109375 9.425781 C 25.949219 9.425781 25.816406 9.554688 25.816406 9.71875 L 25.816406 14.300781 L 23.421875 15.742188 C 23.285156 15.828125 23.242188 16.007812 23.324219 16.144531 C 23.378906 16.234375 23.476562 16.285156 23.574219 16.285156 C 23.628906 16.285156 23.679688 16.273438 23.726562 16.246094 L 26.40625 14.632812 L 26.40625 9.71875 C 26.402344 9.554688 26.269531 9.425781 26.109375 9.425781 Z M 23.945312 7.019531 C 23.941406 7.03125 23.941406 7.042969 23.941406 7.058594 L 23.941406 7.351562 C 23.941406 7.511719 24.074219 7.644531 24.234375 7.644531 C 24.394531 7.644531 24.527344 7.511719 24.527344 7.351562 L 24.527344 7.058594 C 24.527344 7.046875 24.527344 7.03125 24.523438 7.019531 C 25.210938 6.882812 25.726562 6.277344 25.726562 5.554688 C 25.726562 4.726562 25.058594 4.058594 24.230469 4.058594 C 23.40625 4.058594 22.738281 4.726562 22.738281 5.554688 C 22.738281 6.277344 23.257812 6.882812 23.945312 7.019531 Z M 23.945312 7.019531 "/>
</g>
</svg>
