<?xml version="1.0" encoding="UTF-8"?>
<svg xmlns="http://www.w3.org/2000/svg" xmlns:xlink="http://www.w3.org/1999/xlink" width="30px" height="30px" viewBox="0 0 30 30" version="1.1">
<g id="surface1">
<path style=" stroke:none;fill-rule:nonzero;fill:rgb(100%,100%,100%);fill-opacity:1;" d="M 25.730469 5.652344 L 4.269531 5.652344 C 3.785156 5.652344 3.390625 6.046875 3.390625 6.53125 L 3.390625 20.683594 C 3.390625 21.167969 3.785156 21.5625 4.269531 21.5625 L 25.730469 21.5625 C 26.214844 21.5625 26.609375 21.167969 26.609375 20.683594 L 26.609375 6.53125 C 26.609375 6.046875 26.214844 5.652344 25.730469 5.652344 Z M 25.730469 5.652344 "/>
<path style=" stroke:none;fill-rule:nonzero;fill:rgb(90.196079%,90.196079%,90.196079%);fill-opacity:1;" d="M 4.269531 21.5625 L 25.730469 21.5625 C 26.214844 21.5625 26.609375 21.167969 26.609375 20.683594 L 26.609375 20.035156 L 3.390625 20.035156 L 3.390625 20.683594 C 3.390625 21.171875 3.785156 21.5625 4.269531 21.5625 Z M 4.269531 21.5625 "/>
<path style=" stroke:none;fill-rule:nonzero;fill:rgb(0%,35.686275%,100%);fill-opacity:1;" d="M 25.730469 4.480469 L 4.269531 4.480469 C 3.136719 4.480469 2.21875 5.398438 2.21875 6.53125 L 2.21875 20.683594 C 2.21875 21.8125 3.136719 22.734375 4.269531 22.734375 L 25.730469 22.734375 C 26.863281 22.734375 27.78125 21.8125 27.78125 20.683594 L 27.78125 6.53125 C 27.78125 5.398438 26.863281 4.480469 25.730469 4.480469 Z M 26.609375 20.035156 L 26.609375 20.683594 C 26.609375 21.167969 26.214844 21.5625 25.730469 21.5625 L 4.269531 21.5625 C 3.785156 21.5625 3.390625 21.167969 3.390625 20.683594 L 3.390625 6.53125 C 3.390625 6.046875 3.785156 5.652344 4.269531 5.652344 L 25.730469 5.652344 C 26.214844 5.652344 26.609375 6.046875 26.609375 6.53125 Z M 19.863281 25.519531 L 10.136719 25.519531 C 9.8125 25.519531 9.550781 25.257812 9.550781 24.933594 C 9.550781 24.613281 9.8125 24.347656 10.136719 24.347656 L 19.863281 24.347656 C 20.1875 24.347656 20.449219 24.613281 20.449219 24.933594 C 20.449219 25.257812 20.1875 25.519531 19.863281 25.519531 Z M 19.863281 25.519531 "/>
<path style=" stroke:none;fill-rule:nonzero;fill:rgb(2.352941%,95.294118%,100%);fill-opacity:1;" d="M 3.722656 19.414062 C 3.644531 19.414062 3.566406 19.382812 3.507812 19.320312 C 3.402344 19.203125 3.40625 19.015625 3.527344 18.90625 L 10.457031 12.472656 L 13.5625 15.875 L 21.148438 7.359375 L 26.53125 13.109375 C 26.640625 13.226562 26.636719 13.414062 26.519531 13.523438 C 26.402344 13.636719 26.21875 13.628906 26.105469 13.511719 L 21.160156 8.226562 L 13.574219 16.75 L 10.421875 13.300781 L 3.921875 19.335938 C 3.863281 19.390625 3.792969 19.414062 3.722656 19.414062 Z M 3.722656 19.414062 "/>
<path style=" stroke:none;fill-rule:nonzero;fill:rgb(84.313726%,90.588236%,100%);fill-opacity:1;" d="M 4.582031 15.875 C 4.582031 17.214844 5.667969 18.300781 7.003906 18.300781 C 8.34375 18.300781 9.429688 17.214844 9.429688 15.875 C 9.429688 14.535156 8.34375 13.449219 7.003906 13.449219 C 5.667969 13.449219 4.582031 14.535156 4.582031 15.875 Z M 4.582031 15.875 "/>
<path style=" stroke:none;fill-rule:nonzero;fill:rgb(70.980394%,81.176472%,95.686275%);fill-opacity:1;" d="M 5.265625 15.875 C 5.265625 16.835938 6.046875 17.613281 7.003906 17.613281 C 7.964844 17.613281 8.742188 16.835938 8.742188 15.875 C 8.742188 14.917969 7.964844 14.136719 7.003906 14.136719 C 6.046875 14.136719 5.265625 14.917969 5.265625 15.875 Z M 5.265625 15.875 "/>
<path style=" stroke:none;fill-rule:nonzero;fill:rgb(0%,35.686275%,100%);fill-opacity:1;" d="M 6.121094 15.875 C 6.121094 16.367188 6.515625 16.765625 7.003906 16.765625 C 7.492188 16.765625 7.890625 16.367188 7.890625 15.875 C 7.890625 15.386719 7.492188 14.988281 7.003906 14.988281 C 6.515625 14.988281 6.121094 15.386719 6.121094 15.875 Z M 6.121094 15.875 "/>
<path style=" stroke:none;fill-rule:nonzero;fill:rgb(84.313726%,90.588236%,100%);fill-opacity:1;" d="M 17.019531 9.664062 C 17.019531 11.003906 18.101562 12.089844 19.441406 12.089844 C 20.78125 12.089844 21.863281 11.003906 21.863281 9.664062 C 21.863281 8.324219 20.78125 7.238281 19.441406 7.238281 C 18.101562 7.238281 17.019531 8.324219 17.019531 9.664062 Z M 17.019531 9.664062 "/>
<path style=" stroke:none;fill-rule:nonzero;fill:rgb(70.980394%,81.176472%,95.686275%);fill-opacity:1;" d="M 17.703125 9.664062 C 17.703125 10.625 18.480469 11.402344 19.441406 11.402344 C 20.402344 11.402344 21.179688 10.625 21.179688 9.664062 C 21.179688 8.707031 20.402344 7.925781 19.441406 7.925781 C 18.480469 7.925781 17.703125 8.707031 17.703125 9.664062 Z M 17.703125 9.664062 "/>
<path style=" stroke:none;fill-rule:nonzero;fill:rgb(0%,35.686275%,100%);fill-opacity:1;" d="M 18.554688 9.664062 C 18.554688 10.15625 18.953125 10.554688 19.441406 10.554688 C 19.929688 10.554688 20.328125 10.15625 20.328125 9.664062 C 20.328125 9.175781 19.929688 8.777344 19.441406 8.777344 C 18.953125 8.777344 18.554688 9.175781 18.554688 9.664062 Z M 18.554688 9.664062 "/>
<path style=" stroke:none;fill-rule:nonzero;fill:rgb(84.313726%,90.588236%,100%);fill-opacity:1;" d="M 21.074219 15.808594 C 21.074219 16.558594 21.679688 17.167969 22.429688 17.167969 C 23.179688 17.167969 23.785156 16.558594 23.785156 15.808594 C 23.785156 15.058594 23.179688 14.449219 22.429688 14.449219 C 21.679688 14.449219 21.074219 15.058594 21.074219 15.808594 Z M 21.074219 15.808594 "/>
<path style=" stroke:none;fill-rule:nonzero;fill:rgb(70.980394%,81.176472%,95.686275%);fill-opacity:1;" d="M 21.457031 15.808594 C 21.457031 16.347656 21.890625 16.78125 22.429688 16.78125 C 22.96875 16.78125 23.402344 16.347656 23.402344 15.808594 C 23.402344 15.269531 22.96875 14.835938 22.429688 14.835938 C 21.890625 14.835938 21.457031 15.269531 21.457031 15.808594 Z M 21.457031 15.808594 "/>
<path style=" stroke:none;fill-rule:nonzero;fill:rgb(0%,35.686275%,100%);fill-opacity:1;" d="M 21.933594 15.808594 C 21.933594 16.082031 22.15625 16.308594 22.429688 16.308594 C 22.703125 16.308594 22.925781 16.082031 22.925781 15.808594 C 22.925781 15.535156 22.703125 15.308594 22.429688 15.308594 C 22.15625 15.308594 21.933594 15.535156 21.933594 15.808594 Z M 21.933594 15.808594 "/>
<path style=" stroke:none;fill-rule:nonzero;fill:rgb(100%,100%,100%);fill-opacity:1;" d="M 12.796875 21.097656 L 8.0625 21.097656 C 7.914062 21.097656 7.796875 20.980469 7.796875 20.832031 C 7.796875 20.6875 7.914062 20.570312 8.0625 20.570312 L 12.796875 20.570312 C 12.941406 20.570312 13.058594 20.6875 13.058594 20.832031 C 13.058594 20.976562 12.941406 21.097656 12.796875 21.097656 Z M 6.460938 21.097656 L 5.6875 21.097656 C 5.539062 21.097656 5.421875 20.980469 5.421875 20.832031 C 5.421875 20.6875 5.539062 20.570312 5.6875 20.570312 L 6.460938 20.570312 C 6.609375 20.570312 6.726562 20.6875 6.726562 20.832031 C 6.726562 20.976562 6.605469 21.097656 6.460938 21.097656 Z M 6.460938 21.097656 "/>
</g>
</svg>
