<?xml version="1.0" encoding="UTF-8"?>
<svg xmlns="http://www.w3.org/2000/svg" xmlns:xlink="http://www.w3.org/1999/xlink" width="40px" height="40px" viewBox="0 0 40 40" version="1.1">
<g id="surface1">
<path style=" stroke:none;fill-rule:nonzero;fill:rgb(1.960784%,5.098039%,25.882354%);fill-opacity:1;" d="M 20 37.5 C 16.375 37.5 13.75 29.6875 13.75 20 C 13.75 10.3125 16.375 2.5 20 2.5 C 23.625 2.5 26.25 10.3125 26.25 20 C 26.25 29.6875 23.625 37.5 20 37.5 Z M 20 36.25 C 22.5625 36.25 25 29 25 20 C 25 11 22.5625 3.75 20 3.75 C 17.4375 3.75 15 11 15 20 C 15 29 17.4375 36.25 20 36.25 Z M 20 36.25 "/>
<path style=" stroke:none;fill-rule:nonzero;fill:rgb(1.960784%,5.098039%,25.882354%);fill-opacity:1;" d="M 4.875 28.75 C 3 25.625 8.5 19.4375 16.875 14.5625 C 25.25 9.6875 33.3125 8.125 35.125 11.25 C 36.9375 14.375 31.5 20.5625 23.125 25.4375 C 14.75 30.3125 6.6875 31.875 4.875 28.75 Z M 5.9375 28.125 C 7.25 30.375 14.75 28.8125 22.5 24.3125 C 30.25 19.8125 35.375 14.125 34.0625 11.875 C 32.75 9.625 25.25 11.1875 17.5 15.6875 C 9.75 20.1875 4.625 25.875 5.9375 28.125 Z M 5.9375 28.125 "/>
<path style=" stroke:none;fill-rule:nonzero;fill:rgb(1.960784%,5.098039%,25.882354%);fill-opacity:1;" d="M 35.125 28.75 C 33.3125 31.875 25.1875 30.25 16.875 25.4375 C 8.5625 20.625 3 14.375 4.875 11.25 C 6.75 8.125 14.8125 9.75 23.125 14.5625 C 31.4375 19.375 37 25.625 35.125 28.75 Z M 34.0625 28.125 C 35.375 25.875 30.25 20.1875 22.5 15.6875 C 14.75 11.1875 7.1875 9.625 5.9375 11.875 C 4.6875 14.125 9.75 19.8125 17.5 24.3125 C 25.25 28.8125 32.8125 30.375 34.0625 28.125 Z M 34.0625 28.125 "/>
<path style=" stroke:none;fill-rule:nonzero;fill:rgb(18.431373%,29.411766%,100%);fill-opacity:1;" d="M 20 23.125 C 18.25 23.125 16.875 21.75 16.875 20 C 16.875 18.25 18.25 16.875 20 16.875 C 21.75 16.875 23.125 18.25 23.125 20 C 23.125 21.75 21.75 23.125 20 23.125 Z M 10.625 12.1875 C 9.5625 12.1875 8.75 11.375 8.75 10.3125 C 8.75 9.25 9.5625 8.4375 10.625 8.4375 C 11.6875 8.4375 12.5 9.25 12.5 10.3125 C 12.5 11.375 11.6875 12.1875 10.625 12.1875 Z M 16.25 34.375 C 15.1875 34.375 14.375 33.5625 14.375 32.5 C 14.375 31.4375 15.1875 30.625 16.25 30.625 C 17.3125 30.625 18.125 31.4375 18.125 32.5 C 18.125 33.5625 17.3125 34.375 16.25 34.375 Z M 33.75 17.5 C 32.6875 17.5 31.875 16.6875 31.875 15.625 C 31.875 14.5625 32.6875 13.75 33.75 13.75 C 34.8125 13.75 35.625 14.5625 35.625 15.625 C 35.625 16.6875 34.8125 17.5 33.75 17.5 Z M 33.75 17.5 "/>
</g>
</svg>
