<?xml version="1.0" encoding="UTF-8"?>
<svg xmlns="http://www.w3.org/2000/svg" xmlns:xlink="http://www.w3.org/1999/xlink" width="30px" height="30px" viewBox="0 0 30 30" version="1.1">
<g id="surface1">
<path style=" stroke:none;fill-rule:nonzero;fill:rgb(0%,35.686275%,100%);fill-opacity:1;" d="M 20.121094 6.910156 C 20.121094 7.375 20.476562 7.753906 20.914062 7.753906 C 21.347656 7.753906 21.703125 7.375 21.703125 6.910156 C 21.703125 6.445312 21.347656 6.070312 20.910156 6.070312 C 20.476562 6.070312 20.121094 6.445312 20.121094 6.910156 Z M 20.121094 6.910156 "/>
<path style=" stroke:none;fill-rule:nonzero;fill:rgb(0%,35.686275%,100%);fill-opacity:1;" d="M 20.121094 13.515625 C 20.121094 13.980469 20.476562 14.355469 20.914062 14.355469 C 21.347656 14.355469 21.703125 13.980469 21.703125 13.515625 C 21.703125 13.050781 21.347656 12.671875 20.910156 12.671875 C 20.476562 12.671875 20.121094 13.050781 20.121094 13.515625 Z M 20.121094 13.515625 "/>
<path style=" stroke:none;fill-rule:nonzero;fill:rgb(100%,100%,100%);fill-opacity:1;" d="M 22.683594 5.28125 L 5.28125 5.28125 C 4.796875 5.28125 4.398438 5.679688 4.398438 6.160156 L 4.398438 7.664062 C 4.398438 8.148438 4.796875 8.542969 5.28125 8.542969 L 22.683594 8.542969 C 23.167969 8.542969 23.5625 8.148438 23.5625 7.664062 L 23.5625 6.160156 C 23.5625 5.675781 23.167969 5.28125 22.683594 5.28125 Z M 13.082031 7.203125 L 6.066406 7.203125 C 5.90625 7.203125 5.773438 7.070312 5.773438 6.910156 C 5.773438 6.75 5.90625 6.617188 6.066406 6.617188 L 13.082031 6.617188 C 13.242188 6.617188 13.375 6.75 13.375 6.910156 C 13.375 7.070312 13.242188 7.203125 13.082031 7.203125 Z M 20.914062 7.753906 C 20.476562 7.753906 20.121094 7.375 20.121094 6.914062 C 20.121094 6.453125 20.476562 6.074219 20.914062 6.074219 C 21.347656 6.074219 21.703125 6.453125 21.703125 6.914062 C 21.703125 7.375 21.347656 7.753906 20.914062 7.753906 Z M 23.5625 12.761719 C 23.5625 12.277344 23.167969 11.882812 22.683594 11.882812 L 5.28125 11.882812 C 4.796875 11.882812 4.398438 12.277344 4.398438 12.761719 L 4.398438 14.265625 C 4.398438 14.75 4.796875 15.148438 5.28125 15.148438 L 16.84375 15.148438 L 17.800781 14.5625 C 17.972656 14.453125 18.171875 14.398438 18.378906 14.394531 L 18.398438 14.394531 C 18.585938 14.394531 18.777344 14.441406 18.945312 14.523438 C 19.121094 14.617188 19.273438 14.75 19.386719 14.914062 L 19.542969 15.148438 L 20.972656 15.148438 L 21.101562 14.898438 C 21.171875 14.761719 21.265625 14.640625 21.390625 14.546875 C 21.503906 14.453125 21.636719 14.382812 21.78125 14.34375 C 21.882812 14.3125 21.996094 14.296875 22.105469 14.296875 C 22.292969 14.296875 22.480469 14.34375 22.648438 14.429688 L 23.378906 14.804688 C 23.492188 14.65625 23.5625 14.46875 23.5625 14.265625 Z M 20.914062 14.355469 C 20.476562 14.355469 20.121094 13.976562 20.121094 13.515625 C 20.121094 13.050781 20.476562 12.671875 20.914062 12.671875 C 21.347656 12.671875 21.703125 13.050781 21.703125 13.515625 C 21.703125 13.976562 21.347656 14.355469 20.914062 14.355469 Z M 20.914062 14.355469 "/>
<path style=" stroke:none;fill-rule:nonzero;fill:rgb(0%,35.686275%,100%);fill-opacity:1;" d="M 22.683594 4.109375 L 5.28125 4.109375 C 4.148438 4.109375 3.226562 5.03125 3.226562 6.160156 L 3.226562 7.664062 C 3.226562 8.796875 4.148438 9.714844 5.28125 9.714844 L 22.683594 9.714844 C 23.816406 9.714844 24.734375 8.796875 24.734375 7.664062 L 24.734375 6.160156 C 24.734375 5.03125 23.816406 4.109375 22.683594 4.109375 Z M 23.5625 7.664062 C 23.5625 8.148438 23.167969 8.542969 22.683594 8.542969 L 5.28125 8.542969 C 4.796875 8.542969 4.398438 8.148438 4.398438 7.664062 L 4.398438 6.160156 C 4.398438 5.679688 4.796875 5.28125 5.28125 5.28125 L 22.683594 5.28125 C 23.167969 5.28125 23.5625 5.679688 23.5625 6.160156 Z M 23.5625 7.664062 "/>
<path style=" stroke:none;fill-rule:nonzero;fill:rgb(0%,35.686275%,100%);fill-opacity:1;" d="M 13.082031 6.617188 L 6.066406 6.617188 C 5.90625 6.617188 5.773438 6.75 5.773438 6.910156 C 5.773438 7.070312 5.90625 7.203125 6.066406 7.203125 L 13.082031 7.203125 C 13.242188 7.203125 13.375 7.070312 13.375 6.910156 C 13.375 6.75 13.242188 6.617188 13.082031 6.617188 Z M 13.082031 6.617188 "/>
<path style=" stroke:none;fill-rule:nonzero;fill:rgb(90.196079%,90.196079%,90.196079%);fill-opacity:1;" d="M 14.78125 21.417969 C 14.664062 21.25 14.59375 21.054688 14.578125 20.851562 L 14.476562 19.464844 C 14.453125 19.160156 14.550781 18.871094 14.753906 18.648438 C 14.808594 18.585938 14.867188 18.535156 14.933594 18.488281 L 5.28125 18.488281 C 4.796875 18.488281 4.398438 18.882812 4.398438 19.367188 L 4.398438 20.867188 C 4.398438 21.351562 4.796875 21.746094 5.28125 21.746094 L 15.125 21.746094 C 14.988281 21.664062 14.871094 21.550781 14.78125 21.417969 Z M 14.78125 21.417969 "/>
<path style=" stroke:none;fill-rule:nonzero;fill:rgb(0%,35.686275%,100%);fill-opacity:1;" d="M 16.695312 22.332031 C 16.601562 22.199219 16.519531 22.058594 16.445312 21.914062 L 15.789062 21.929688 L 15.757812 21.929688 C 15.570312 21.929688 15.382812 21.886719 15.21875 21.800781 C 15.183594 21.785156 15.15625 21.765625 15.125 21.746094 L 5.28125 21.746094 C 4.796875 21.746094 4.398438 21.351562 4.398438 20.867188 L 4.398438 19.367188 C 4.398438 18.882812 4.796875 18.484375 5.28125 18.484375 L 14.933594 18.484375 C 14.988281 18.445312 15.050781 18.410156 15.113281 18.382812 C 15.253906 18.316406 15.40625 18.28125 15.566406 18.277344 L 16.1875 18.261719 C 16.199219 18.226562 16.210938 18.199219 16.226562 18.167969 C 16.273438 18.042969 16.328125 17.921875 16.390625 17.804688 C 16.460938 17.664062 16.546875 17.519531 16.640625 17.378906 L 16.597656 17.3125 L 5.28125 17.3125 C 4.148438 17.3125 3.226562 18.230469 3.226562 19.363281 L 3.226562 20.863281 C 3.226562 21.996094 4.148438 22.914062 5.28125 22.914062 L 16.988281 22.914062 L 17.046875 22.800781 C 16.917969 22.65625 16.800781 22.496094 16.695312 22.332031 Z M 16.695312 22.332031 "/>
<path style=" stroke:none;fill-rule:nonzero;fill:rgb(100%,100%,100%);fill-opacity:1;" d="M 22.554688 19.382812 C 22.460938 19.117188 22.320312 18.878906 22.132812 18.667969 C 22.074219 18.601562 22.015625 18.546875 21.953125 18.484375 C 21.8125 18.363281 21.65625 18.253906 21.484375 18.167969 C 21.242188 18.042969 20.976562 17.960938 20.703125 17.933594 C 20.421875 17.902344 20.144531 17.925781 19.875 18.007812 C 19.738281 18.046875 19.609375 18.101562 19.484375 18.167969 C 19.371094 18.226562 19.257812 18.300781 19.160156 18.386719 C 19.121094 18.417969 19.085938 18.453125 19.050781 18.484375 C 18.902344 18.632812 18.78125 18.800781 18.683594 18.984375 C 18.566406 19.214844 18.496094 19.460938 18.476562 19.722656 C 18.457031 19.992188 18.496094 20.261719 18.585938 20.523438 C 18.679688 20.789062 18.820312 21.03125 19.007812 21.242188 C 19.1875 21.445312 19.410156 21.613281 19.65625 21.738281 C 19.660156 21.742188 19.667969 21.742188 19.675781 21.746094 C 19.917969 21.867188 20.171875 21.945312 20.441406 21.972656 C 20.722656 22 21 21.976562 21.269531 21.898438 C 21.402344 21.859375 21.523438 21.8125 21.640625 21.75 C 21.765625 21.683594 21.878906 21.609375 21.984375 21.523438 C 22.183594 21.355469 22.34375 21.15625 22.460938 20.921875 C 22.578125 20.691406 22.648438 20.445312 22.667969 20.1875 C 22.683594 19.914062 22.648438 19.648438 22.554688 19.382812 Z M 22.554688 19.382812 "/>
<path style=" stroke:none;fill-rule:nonzero;fill:rgb(100%,100%,100%);fill-opacity:1;" d="M 25.679688 19.171875 C 25.675781 19.113281 25.632812 19.058594 25.574219 19.023438 C 25.542969 19.011719 25.511719 19 25.480469 19 L 24.707031 19.023438 L 24.167969 19.039062 L 24.144531 18.988281 L 24.035156 18.734375 C 23.988281 18.621094 23.9375 18.515625 23.875 18.410156 C 23.707031 18.105469 23.496094 17.824219 23.246094 17.570312 L 23.019531 17.339844 L 22.996094 17.316406 L 23.585938 16.171875 C 23.59375 16.152344 23.597656 16.128906 23.59375 16.105469 C 23.589844 16.050781 23.546875 15.996094 23.492188 15.964844 L 22.203125 15.300781 C 22.171875 15.289062 22.140625 15.277344 22.105469 15.277344 C 22.046875 15.277344 22 15.304688 21.976562 15.347656 L 21.480469 16.316406 L 21.386719 16.496094 L 21.035156 16.4375 C 20.832031 16.40625 20.628906 16.390625 20.425781 16.390625 C 20.160156 16.390625 19.890625 16.421875 19.632812 16.476562 L 19.304688 16.546875 L 19.152344 16.320312 L 18.570312 15.46875 C 18.550781 15.441406 18.523438 15.417969 18.496094 15.402344 C 18.464844 15.386719 18.429688 15.378906 18.398438 15.378906 C 18.367188 15.378906 18.335938 15.386719 18.3125 15.402344 L 17.125 16.128906 C 17.097656 16.144531 17.078125 16.167969 17.074219 16.203125 C 17.066406 16.238281 17.074219 16.277344 17.101562 16.316406 L 17.105469 16.320312 L 17.785156 17.316406 L 17.855469 17.417969 L 17.628906 17.703125 C 17.507812 17.855469 17.402344 18.011719 17.3125 18.171875 C 17.292969 18.203125 17.28125 18.230469 17.265625 18.261719 C 17.226562 18.335938 17.191406 18.414062 17.160156 18.492188 C 17.105469 18.617188 17.0625 18.746094 17.023438 18.882812 L 16.929688 19.230469 L 15.59375 19.265625 C 15.550781 19.265625 15.511719 19.285156 15.484375 19.308594 C 15.464844 19.332031 15.457031 19.363281 15.457031 19.394531 L 15.558594 20.78125 C 15.5625 20.839844 15.605469 20.894531 15.664062 20.925781 C 15.695312 20.941406 15.726562 20.949219 15.757812 20.949219 L 17.070312 20.914062 L 17.199219 21.21875 C 17.28125 21.402344 17.375 21.578125 17.484375 21.75 C 17.621094 21.957031 17.773438 22.152344 17.949219 22.335938 C 17.960938 22.351562 17.976562 22.367188 17.988281 22.378906 L 18.242188 22.632812 L 18.089844 22.921875 L 17.652344 23.78125 C 17.632812 23.820312 17.640625 23.863281 17.648438 23.886719 C 17.667969 23.929688 17.699219 23.964844 17.746094 23.988281 L 19.035156 24.648438 C 19.0625 24.664062 19.097656 24.671875 19.128906 24.671875 C 19.1875 24.671875 19.238281 24.648438 19.257812 24.605469 L 19.847656 23.457031 L 20.199219 23.511719 C 20.398438 23.546875 20.605469 23.558594 20.804688 23.558594 C 21.074219 23.558594 21.34375 23.53125 21.601562 23.476562 L 21.925781 23.40625 L 22.660156 24.484375 C 22.683594 24.511719 22.707031 24.535156 22.738281 24.550781 C 22.765625 24.566406 22.800781 24.574219 22.835938 24.574219 C 22.867188 24.574219 22.894531 24.566406 22.917969 24.550781 L 24.105469 23.824219 C 24.136719 23.804688 24.152344 23.78125 24.15625 23.75 C 24.167969 23.703125 24.148438 23.664062 24.132812 23.636719 L 23.519531 22.738281 L 23.382812 22.53125 L 23.59375 22.269531 L 23.609375 22.25 C 23.75 22.070312 23.871094 21.882812 23.96875 21.691406 C 24.039062 21.5625 24.097656 21.421875 24.148438 21.277344 C 24.171875 21.210938 24.195312 21.140625 24.210938 21.070312 L 24.3125 20.722656 L 24.734375 20.710938 L 25.644531 20.6875 C 25.6875 20.6875 25.726562 20.667969 25.753906 20.640625 C 25.773438 20.617188 25.78125 20.589844 25.78125 20.558594 Z M 19.375 22.285156 C 19.097656 22.144531 18.851562 21.964844 18.640625 21.746094 C 18.609375 21.714844 18.578125 21.683594 18.546875 21.648438 C 18.304688 21.375 18.121094 21.066406 18.003906 20.726562 C 17.882812 20.382812 17.835938 20.03125 17.859375 19.675781 C 17.882812 19.332031 17.972656 19.003906 18.132812 18.699219 C 18.167969 18.625 18.210938 18.554688 18.257812 18.484375 C 18.332031 18.371094 18.414062 18.265625 18.5 18.164062 C 18.582031 18.074219 18.671875 17.988281 18.765625 17.914062 C 19.035156 17.6875 19.351562 17.519531 19.699219 17.417969 C 19.890625 17.363281 20.082031 17.328125 20.277344 17.3125 C 20.40625 17.304688 20.535156 17.304688 20.667969 17.3125 L 20.765625 17.320312 C 21.113281 17.359375 21.449219 17.457031 21.765625 17.621094 C 22.042969 17.761719 22.292969 17.945312 22.503906 18.167969 C 22.535156 18.195312 22.5625 18.226562 22.589844 18.257812 C 22.65625 18.335938 22.71875 18.410156 22.777344 18.492188 C 22.929688 18.703125 23.050781 18.933594 23.136719 19.179688 C 23.253906 19.523438 23.300781 19.875 23.277344 20.230469 C 23.253906 20.574219 23.164062 20.902344 23.007812 21.207031 C 22.902344 21.40625 22.777344 21.585938 22.628906 21.75 C 22.550781 21.839844 22.464844 21.917969 22.375 21.992188 C 22.210938 22.128906 22.03125 22.242188 21.839844 22.335938 C 21.710938 22.398438 21.578125 22.449219 21.4375 22.492188 C 21.09375 22.59375 20.734375 22.625 20.371094 22.589844 C 20.058594 22.554688 19.757812 22.472656 19.472656 22.335938 C 19.441406 22.320312 19.410156 22.304688 19.375 22.285156 Z M 19.375 22.285156 "/>
<path style=" stroke:none;fill-rule:nonzero;fill:rgb(0%,35.686275%,100%);fill-opacity:1;" d="M 26.761719 20.484375 L 26.660156 19.097656 C 26.644531 18.898438 26.574219 18.699219 26.457031 18.53125 C 26.347656 18.371094 26.195312 18.238281 26.023438 18.148438 C 25.855469 18.066406 25.667969 18.019531 25.480469 18.019531 L 25.449219 18.019531 L 24.792969 18.035156 C 24.625 17.71875 24.425781 17.421875 24.191406 17.144531 L 24.460938 16.621094 C 24.53125 16.484375 24.570312 16.332031 24.582031 16.179688 C 24.589844 16.03125 24.566406 15.886719 24.515625 15.746094 C 24.476562 15.640625 24.425781 15.539062 24.359375 15.449219 C 24.597656 15.113281 24.734375 14.707031 24.734375 14.269531 L 24.734375 12.765625 C 24.734375 11.632812 23.816406 10.714844 22.683594 10.714844 L 5.28125 10.714844 C 4.148438 10.714844 3.226562 11.632812 3.226562 12.765625 L 3.226562 14.265625 C 3.226562 15.398438 4.148438 16.320312 5.28125 16.320312 L 16.09375 16.320312 C 16.09375 16.359375 16.101562 16.398438 16.109375 16.4375 C 16.140625 16.589844 16.203125 16.734375 16.289062 16.863281 L 16.597656 17.3125 L 16.640625 17.382812 C 16.546875 17.523438 16.460938 17.664062 16.390625 17.808594 C 16.328125 17.921875 16.273438 18.046875 16.226562 18.167969 C 16.210938 18.203125 16.203125 18.230469 16.1875 18.265625 L 15.566406 18.28125 C 15.40625 18.285156 15.253906 18.320312 15.113281 18.382812 C 15.050781 18.414062 14.988281 18.449219 14.933594 18.488281 C 14.867188 18.535156 14.804688 18.589844 14.753906 18.648438 C 14.550781 18.875 14.453125 19.164062 14.476562 19.46875 L 14.578125 20.851562 C 14.59375 21.054688 14.664062 21.25 14.78125 21.421875 C 14.871094 21.554688 14.992188 21.664062 15.125 21.753906 C 15.15625 21.769531 15.183594 21.789062 15.21875 21.804688 C 15.382812 21.890625 15.570312 21.9375 15.757812 21.9375 L 15.789062 21.9375 L 16.445312 21.917969 C 16.519531 22.0625 16.601562 22.203125 16.695312 22.339844 C 16.800781 22.503906 16.917969 22.65625 17.046875 22.808594 L 16.988281 22.925781 L 16.777344 23.335938 C 16.707031 23.472656 16.667969 23.621094 16.65625 23.777344 C 16.648438 23.921875 16.671875 24.070312 16.722656 24.210938 C 16.820312 24.496094 17.027344 24.726562 17.300781 24.867188 L 18.589844 25.527344 C 18.757812 25.613281 18.945312 25.660156 19.132812 25.660156 C 19.242188 25.660156 19.351562 25.644531 19.457031 25.613281 C 19.601562 25.574219 19.730469 25.503906 19.84375 25.410156 C 19.964844 25.316406 20.066406 25.195312 20.136719 25.058594 L 20.40625 24.53125 C 20.539062 24.542969 20.675781 24.550781 20.808594 24.550781 C 21.035156 24.550781 21.257812 24.535156 21.480469 24.503906 L 21.851562 25.046875 C 21.960938 25.210938 22.113281 25.34375 22.292969 25.433594 C 22.460938 25.519531 22.648438 25.566406 22.835938 25.566406 L 22.859375 25.566406 C 23.0625 25.5625 23.261719 25.503906 23.433594 25.398438 L 24.621094 24.671875 C 24.882812 24.515625 25.058594 24.261719 25.121094 23.96875 C 25.15625 23.820312 25.15625 23.667969 25.125 23.519531 C 25.097656 23.367188 25.035156 23.222656 24.945312 23.09375 L 24.59375 22.578125 C 24.6875 22.4375 24.773438 22.296875 24.847656 22.152344 C 24.921875 22.007812 24.988281 21.855469 25.046875 21.695312 L 25.671875 21.679688 C 25.828125 21.675781 25.980469 21.640625 26.121094 21.578125 C 26.257812 21.511719 26.382812 21.425781 26.480469 21.3125 C 26.6875 21.078125 26.785156 20.789062 26.761719 20.484375 Z M 4.398438 14.265625 L 4.398438 12.765625 C 4.398438 12.28125 4.796875 11.886719 5.28125 11.886719 L 22.683594 11.886719 C 23.167969 11.886719 23.5625 12.28125 23.5625 12.765625 L 23.5625 14.265625 C 23.5625 14.46875 23.496094 14.65625 23.382812 14.804688 L 22.648438 14.429688 C 22.480469 14.34375 22.292969 14.296875 22.105469 14.296875 C 21.996094 14.296875 21.886719 14.3125 21.78125 14.34375 C 21.636719 14.382812 21.507812 14.457031 21.390625 14.546875 C 21.273438 14.640625 21.171875 14.761719 21.101562 14.898438 L 20.976562 15.148438 L 19.546875 15.148438 L 19.390625 14.914062 C 19.277344 14.75 19.125 14.617188 18.945312 14.523438 C 18.777344 14.441406 18.589844 14.394531 18.402344 14.394531 L 18.382812 14.394531 C 18.175781 14.398438 17.976562 14.457031 17.804688 14.5625 L 16.84375 15.148438 L 5.28125 15.148438 C 4.796875 15.148438 4.398438 14.75 4.398438 14.265625 Z M 25.753906 20.644531 C 25.726562 20.675781 25.691406 20.6875 25.644531 20.6875 L 24.734375 20.710938 L 24.3125 20.726562 L 24.214844 21.074219 C 24.191406 21.144531 24.171875 21.214844 24.148438 21.28125 C 24.097656 21.425781 24.039062 21.566406 23.972656 21.695312 C 23.875 21.882812 23.753906 22.070312 23.609375 22.253906 L 23.59375 22.273438 L 23.382812 22.535156 L 23.523438 22.742188 L 24.132812 23.640625 C 24.152344 23.667969 24.167969 23.707031 24.160156 23.753906 C 24.15625 23.785156 24.132812 23.808594 24.109375 23.828125 L 22.921875 24.550781 C 22.898438 24.566406 22.867188 24.574219 22.835938 24.574219 C 22.804688 24.574219 22.773438 24.566406 22.742188 24.550781 C 22.707031 24.535156 22.679688 24.511719 22.664062 24.484375 L 21.929688 23.40625 L 21.601562 23.476562 C 21.34375 23.53125 21.078125 23.5625 20.808594 23.5625 C 20.609375 23.5625 20.402344 23.542969 20.199219 23.515625 L 19.847656 23.457031 L 19.257812 24.605469 C 19.238281 24.648438 19.1875 24.671875 19.132812 24.671875 C 19.097656 24.671875 19.066406 24.664062 19.039062 24.652344 L 17.75 23.988281 C 17.699219 23.964844 17.667969 23.925781 17.652344 23.886719 C 17.640625 23.867188 17.632812 23.820312 17.65625 23.78125 L 18.09375 22.921875 L 18.242188 22.632812 L 17.992188 22.378906 C 17.976562 22.367188 17.960938 22.351562 17.949219 22.335938 C 17.773438 22.15625 17.621094 21.957031 17.488281 21.75 C 17.378906 21.582031 17.28125 21.40625 17.203125 21.21875 L 17.070312 20.914062 L 15.761719 20.949219 C 15.730469 20.949219 15.695312 20.941406 15.667969 20.925781 C 15.605469 20.894531 15.566406 20.839844 15.5625 20.78125 L 15.460938 19.394531 C 15.457031 19.363281 15.464844 19.332031 15.488281 19.308594 C 15.515625 19.28125 15.550781 19.265625 15.597656 19.265625 L 16.929688 19.230469 L 17.027344 18.882812 C 17.066406 18.746094 17.109375 18.617188 17.164062 18.492188 C 17.195312 18.414062 17.230469 18.335938 17.265625 18.261719 C 17.28125 18.230469 17.300781 18.203125 17.3125 18.171875 C 17.402344 18.011719 17.511719 17.855469 17.632812 17.703125 L 17.855469 17.417969 L 17.789062 17.316406 L 17.109375 16.320312 L 17.101562 16.316406 C 17.078125 16.277344 17.066406 16.238281 17.078125 16.203125 C 17.082031 16.171875 17.101562 16.144531 17.128906 16.128906 L 18.316406 15.402344 C 18.339844 15.386719 18.367188 15.378906 18.402344 15.378906 C 18.433594 15.378906 18.464844 15.386719 18.496094 15.402344 C 18.53125 15.417969 18.554688 15.441406 18.574219 15.46875 L 19.152344 16.320312 L 19.308594 16.546875 L 19.632812 16.476562 C 19.894531 16.421875 20.160156 16.390625 20.429688 16.390625 C 20.628906 16.390625 20.835938 16.410156 21.039062 16.4375 L 21.390625 16.496094 L 21.480469 16.316406 L 21.976562 15.347656 C 22 15.304688 22.046875 15.277344 22.105469 15.277344 C 22.140625 15.277344 22.171875 15.289062 22.199219 15.300781 L 23.488281 15.964844 C 23.546875 15.992188 23.589844 16.050781 23.59375 16.105469 C 23.597656 16.128906 23.59375 16.152344 23.582031 16.171875 L 22.996094 17.320312 L 23.019531 17.34375 L 23.246094 17.574219 C 23.5 17.832031 23.710938 18.109375 23.875 18.414062 C 23.933594 18.519531 23.988281 18.625 24.035156 18.734375 L 24.144531 18.992188 L 24.167969 19.039062 L 24.707031 19.027344 L 25.480469 19.003906 C 25.511719 19.003906 25.542969 19.015625 25.574219 19.027344 C 25.632812 19.0625 25.675781 19.117188 25.679688 19.175781 L 25.78125 20.5625 C 25.785156 20.59375 25.773438 20.621094 25.753906 20.644531 Z M 25.753906 20.644531 "/>
<path style=" stroke:none;fill-rule:nonzero;fill:rgb(2.352941%,95.294118%,100%);fill-opacity:1;" d="M 20.28125 17.3125 L 20.667969 17.3125 C 20.539062 17.304688 20.40625 17.304688 20.28125 17.3125 Z M 20.28125 17.3125 "/>
<path style=" stroke:none;fill-rule:nonzero;fill:rgb(2.352941%,95.294118%,100%);fill-opacity:1;" d="M 23.136719 19.179688 C 23.050781 18.933594 22.929688 18.703125 22.777344 18.492188 C 22.71875 18.410156 22.65625 18.335938 22.589844 18.257812 C 22.5625 18.226562 22.535156 18.195312 22.507812 18.167969 C 22.292969 17.945312 22.042969 17.761719 21.765625 17.617188 C 21.453125 17.457031 21.113281 17.359375 20.765625 17.320312 L 20.667969 17.3125 L 20.28125 17.3125 C 20.082031 17.328125 19.890625 17.359375 19.699219 17.417969 C 19.351562 17.519531 19.039062 17.6875 18.765625 17.914062 C 18.671875 17.992188 18.582031 18.078125 18.5 18.164062 C 18.410156 18.265625 18.332031 18.367188 18.257812 18.484375 C 18.214844 18.554688 18.171875 18.625 18.132812 18.699219 C 17.976562 19.003906 17.886719 19.332031 17.859375 19.675781 C 17.832031 20.03125 17.882812 20.382812 18.003906 20.722656 C 18.125 21.0625 18.304688 21.375 18.546875 21.648438 C 18.578125 21.683594 18.609375 21.714844 18.640625 21.746094 C 18.855469 21.964844 19.101562 22.144531 19.375 22.285156 C 19.40625 22.304688 19.4375 22.316406 19.472656 22.332031 C 19.761719 22.464844 20.0625 22.550781 20.375 22.585938 C 20.734375 22.621094 21.09375 22.589844 21.441406 22.488281 C 21.582031 22.445312 21.710938 22.394531 21.839844 22.332031 C 22.03125 22.242188 22.210938 22.128906 22.375 21.988281 C 22.464844 21.914062 22.550781 21.832031 22.628906 21.746094 C 22.777344 21.582031 22.90625 21.402344 23.007812 21.203125 C 23.164062 20.898438 23.253906 20.570312 23.28125 20.226562 C 23.304688 19.875 23.257812 19.523438 23.136719 19.179688 Z M 22.667969 20.1875 C 22.648438 20.445312 22.578125 20.691406 22.460938 20.921875 C 22.34375 21.15625 22.183594 21.355469 21.984375 21.523438 C 21.878906 21.609375 21.765625 21.6875 21.640625 21.75 C 21.523438 21.8125 21.402344 21.859375 21.269531 21.898438 C 21 21.976562 20.722656 22.003906 20.441406 21.972656 C 20.171875 21.945312 19.917969 21.867188 19.675781 21.746094 C 19.671875 21.742188 19.664062 21.742188 19.65625 21.738281 C 19.410156 21.613281 19.1875 21.441406 19.007812 21.242188 C 18.820312 21.03125 18.675781 20.789062 18.585938 20.523438 C 18.496094 20.261719 18.457031 19.992188 18.476562 19.722656 C 18.496094 19.464844 18.566406 19.214844 18.683594 18.984375 C 18.777344 18.796875 18.902344 18.628906 19.050781 18.484375 C 19.085938 18.453125 19.121094 18.417969 19.160156 18.386719 C 19.257812 18.300781 19.371094 18.226562 19.484375 18.167969 C 19.609375 18.101562 19.738281 18.046875 19.875 18.007812 C 20.144531 17.925781 20.421875 17.898438 20.703125 17.933594 C 20.976562 17.960938 21.238281 18.042969 21.484375 18.167969 C 21.65625 18.253906 21.8125 18.359375 21.953125 18.484375 C 22.015625 18.542969 22.078125 18.601562 22.132812 18.667969 C 22.320312 18.878906 22.464844 19.117188 22.554688 19.382812 C 22.648438 19.648438 22.683594 19.917969 22.667969 20.1875 Z M 22.667969 20.1875 "/>
</g>
</svg>
