<?xml version="1.0" encoding="UTF-8"?>
<svg xmlns="http://www.w3.org/2000/svg" xmlns:xlink="http://www.w3.org/1999/xlink" width="30px" height="30px" viewBox="0 0 30 30" version="1.1">
<g id="surface1">
<path style=" stroke:none;fill-rule:nonzero;fill:rgb(100%,100%,100%);fill-opacity:1;" d="M 7.574219 13.554688 C 7.574219 17.65625 10.902344 20.984375 15.007812 20.984375 C 19.113281 20.984375 22.441406 17.65625 22.441406 13.550781 C 22.441406 9.449219 19.113281 6.121094 15.007812 6.121094 C 10.902344 6.121094 7.578125 9.449219 7.574219 13.550781 Z M 7.574219 13.554688 "/>
<path style=" stroke:none;fill-rule:nonzero;fill:rgb(90.196079%,90.196079%,90.196079%);fill-opacity:1;" d="M 18.695312 25.46875 L 17.089844 21.886719 C 16.417969 22.054688 15.71875 22.140625 15.011719 22.140625 C 14.191406 22.140625 13.390625 22.023438 12.621094 21.800781 L 10.96875 25.484375 Z M 18.695312 25.46875 "/>
<path style=" stroke:none;fill-rule:nonzero;fill:rgb(0%,35.686275%,100%);fill-opacity:1;" d="M 23.613281 13.539062 C 23.613281 11.242188 22.71875 9.082031 21.09375 7.460938 C 19.46875 5.835938 17.3125 4.941406 15.015625 4.941406 C 12.71875 4.941406 10.558594 5.832031 8.9375 7.460938 C 7.3125 9.085938 6.414062 11.242188 6.414062 13.539062 C 6.414062 15.835938 7.308594 17.992188 8.9375 19.617188 C 9.695312 20.375 10.570312 20.976562 11.523438 21.398438 L 9.585938 25.714844 C 9.492188 25.921875 9.507812 26.164062 9.636719 26.351562 C 9.757812 26.542969 9.96875 26.65625 10.199219 26.65625 L 10.203125 26.65625 L 19.546875 26.632812 C 19.65625 26.632812 19.757812 26.601562 19.847656 26.550781 C 20.132812 26.417969 20.261719 26.074219 20.128906 25.78125 L 18.21875 21.523438 C 19.285156 21.09375 20.261719 20.453125 21.101562 19.613281 C 22.71875 17.996094 23.613281 15.835938 23.613281 13.539062 Z M 18.695312 25.46875 L 10.96875 25.484375 L 12.621094 21.800781 C 13.390625 22.023438 14.191406 22.140625 15.011719 22.140625 C 15.71875 22.140625 16.417969 22.054688 17.089844 21.886719 Z M 15.015625 20.96875 C 10.917969 20.96875 7.585938 17.632812 7.585938 13.539062 C 7.585938 9.441406 10.917969 6.113281 15.015625 6.113281 C 19.109375 6.113281 22.441406 9.441406 22.441406 13.539062 C 22.441406 17.632812 19.109375 20.96875 15.015625 20.96875 Z M 8.3125 6.152344 C 8.382812 6.152344 8.453125 6.128906 8.507812 6.078125 C 8.652344 5.957031 8.796875 5.832031 8.949219 5.714844 C 9.078125 5.617188 9.097656 5.429688 9 5.304688 C 8.902344 5.175781 8.714844 5.15625 8.589844 5.253906 C 8.433594 5.375 8.277344 5.503906 8.125 5.636719 C 8 5.742188 7.988281 5.929688 8.09375 6.050781 C 8.152344 6.121094 8.234375 6.152344 8.316406 6.152344 Z M 6.910156 7.351562 C 6.96875 7.394531 7.03125 7.414062 7.097656 7.414062 C 7.179688 7.414062 7.265625 7.375 7.324219 7.304688 C 7.445312 7.160156 7.566406 7.015625 7.695312 6.875 C 7.804688 6.757812 7.796875 6.570312 7.675781 6.464844 C 7.554688 6.355469 7.371094 6.363281 7.261719 6.484375 C 7.128906 6.632812 6.996094 6.785156 6.871094 6.941406 C 6.769531 7.066406 6.785156 7.25 6.910156 7.351562 Z M 11.304688 4.339844 C 11.335938 4.339844 11.375 4.332031 11.410156 4.320312 C 11.585938 4.25 11.761719 4.1875 11.945312 4.128906 C 12.101562 4.078125 12.183594 3.910156 12.132812 3.757812 C 12.082031 3.605469 11.914062 3.523438 11.761719 3.570312 C 11.570312 3.632812 11.382812 3.699219 11.195312 3.773438 C 11.046875 3.832031 10.972656 4.003906 11.03125 4.15625 C 11.074219 4.269531 11.1875 4.339844 11.304688 4.339844 Z M 14.738281 3.644531 C 14.832031 3.640625 14.925781 3.640625 15.015625 3.640625 C 15.109375 3.640625 15.210938 3.640625 15.308594 3.644531 L 15.316406 3.644531 C 15.472656 3.644531 15.601562 3.519531 15.609375 3.359375 C 15.617188 3.199219 15.484375 3.066406 15.324219 3.058594 C 15.222656 3.054688 15.117188 3.054688 15.015625 3.054688 C 14.917969 3.054688 14.816406 3.054688 14.722656 3.054688 C 14.558594 3.0625 14.429688 3.195312 14.4375 3.359375 C 14.441406 3.519531 14.574219 3.648438 14.738281 3.644531 Z M 16.441406 3.742188 C 16.628906 3.769531 16.816406 3.804688 17 3.839844 C 17.023438 3.84375 17.039062 3.847656 17.058594 3.847656 C 17.199219 3.847656 17.316406 3.75 17.347656 3.613281 C 17.378906 3.453125 17.277344 3.296875 17.117188 3.265625 C 16.921875 3.226562 16.722656 3.191406 16.523438 3.164062 C 16.363281 3.140625 16.214844 3.25 16.191406 3.414062 C 16.167969 3.574219 16.28125 3.71875 16.441406 3.742188 Z M 12.984375 3.84375 C 13.003906 3.84375 13.023438 3.839844 13.042969 3.835938 C 13.226562 3.800781 13.417969 3.765625 13.601562 3.742188 C 13.765625 3.71875 13.875 3.570312 13.851562 3.410156 C 13.828125 3.25 13.679688 3.136719 13.519531 3.160156 C 13.320312 3.191406 13.121094 3.222656 12.925781 3.265625 C 12.765625 3.296875 12.664062 3.453125 12.695312 3.609375 C 12.726562 3.746094 12.847656 3.84375 12.984375 3.84375 Z M 9.730469 5.117188 C 9.78125 5.117188 9.835938 5.101562 9.882812 5.074219 C 10.042969 4.976562 10.210938 4.882812 10.375 4.792969 C 10.519531 4.71875 10.574219 4.539062 10.496094 4.398438 C 10.421875 4.253906 10.246094 4.203125 10.101562 4.277344 C 9.925781 4.371094 9.75 4.46875 9.578125 4.578125 C 9.441406 4.660156 9.394531 4.839844 9.476562 4.976562 C 9.535156 5.066406 9.632812 5.117188 9.730469 5.117188 Z M 21.101562 5.730469 C 21.25 5.847656 21.394531 5.96875 21.539062 6.09375 C 21.59375 6.144531 21.664062 6.167969 21.734375 6.167969 C 21.8125 6.167969 21.894531 6.132812 21.953125 6.066406 C 22.058594 5.945312 22.046875 5.757812 21.925781 5.65625 C 21.777344 5.523438 21.617188 5.394531 21.464844 5.269531 C 21.335938 5.171875 21.152344 5.195312 21.054688 5.320312 C 20.949219 5.449219 20.972656 5.632812 21.101562 5.730469 Z M 19.671875 4.800781 C 19.835938 4.890625 20.003906 4.988281 20.164062 5.082031 C 20.210938 5.113281 20.265625 5.125 20.316406 5.125 C 20.417969 5.125 20.515625 5.078125 20.566406 4.984375 C 20.652344 4.847656 20.609375 4.667969 20.46875 4.585938 C 20.300781 4.480469 20.125 4.378906 19.945312 4.285156 C 19.800781 4.210938 19.625 4.261719 19.550781 4.40625 C 19.472656 4.546875 19.527344 4.726562 19.671875 4.800781 Z M 6.570312 7.828125 C 6.429688 7.742188 6.25 7.78125 6.164062 7.917969 C 6.054688 8.089844 5.953125 8.261719 5.855469 8.4375 C 5.777344 8.578125 5.828125 8.757812 5.96875 8.835938 C 6.015625 8.863281 6.0625 8.875 6.113281 8.875 C 6.21875 8.875 6.316406 8.820312 6.367188 8.726562 C 6.460938 8.5625 6.558594 8.398438 6.660156 8.234375 C 6.742188 8.09375 6.707031 7.914062 6.570312 7.828125 Z M 18.101562 4.132812 C 18.277344 4.1875 18.460938 4.253906 18.636719 4.324219 C 18.671875 4.339844 18.707031 4.34375 18.742188 4.34375 C 18.859375 4.34375 18.972656 4.273438 19.015625 4.160156 C 19.074219 4.011719 19 3.839844 18.851562 3.777344 C 18.664062 3.707031 18.472656 3.636719 18.285156 3.574219 C 18.132812 3.523438 17.964844 3.605469 17.914062 3.761719 C 17.863281 3.917969 17.945312 4.082031 18.097656 4.128906 Z M 22.71875 7.324219 C 22.777344 7.394531 22.863281 7.433594 22.949219 7.433594 C 23.011719 7.433594 23.078125 7.414062 23.132812 7.367188 C 23.257812 7.265625 23.277344 7.082031 23.175781 6.953125 C 23.050781 6.800781 22.917969 6.644531 22.785156 6.5 C 22.675781 6.378906 22.492188 6.367188 22.371094 6.476562 C 22.25 6.585938 22.242188 6.769531 22.351562 6.890625 C 22.476562 7.03125 22.597656 7.179688 22.71875 7.324219 Z M 24.183594 8.453125 C 24.085938 8.277344 23.984375 8.101562 23.875 7.933594 C 23.789062 7.796875 23.609375 7.753906 23.472656 7.84375 C 23.335938 7.929688 23.292969 8.109375 23.382812 8.246094 C 23.484375 8.40625 23.582031 8.570312 23.671875 8.734375 C 23.726562 8.832031 23.824219 8.886719 23.925781 8.886719 C 23.972656 8.886719 24.023438 8.875 24.066406 8.847656 C 24.210938 8.773438 24.265625 8.59375 24.183594 8.453125 Z M 5.84375 9.808594 C 5.851562 9.789062 5.863281 9.765625 5.871094 9.742188 C 5.933594 9.59375 5.863281 9.421875 5.710938 9.359375 C 5.5625 9.296875 5.390625 9.367188 5.328125 9.519531 C 5.316406 9.542969 5.304688 9.574219 5.296875 9.601562 C 5.09375 9.636719 4.910156 9.777344 4.835938 9.984375 C 4.4375 11.125 4.238281 12.320312 4.238281 13.539062 C 4.238281 14.585938 4.386719 15.621094 4.679688 16.613281 C 4.757812 16.871094 4.988281 17.03125 5.242188 17.03125 C 5.300781 17.03125 5.355469 17.023438 5.410156 17.007812 C 5.722656 16.917969 5.898438 16.589844 5.804688 16.28125 C 5.542969 15.394531 5.40625 14.472656 5.40625 13.539062 C 5.40625 12.453125 5.585938 11.386719 5.941406 10.371094 C 6.015625 10.171875 5.96875 9.960938 5.84375 9.808594 Z M 25.191406 9.988281 C 25.117188 9.777344 24.9375 9.636719 24.730469 9.601562 C 24.722656 9.582031 24.714844 9.558594 24.707031 9.539062 C 24.644531 9.390625 24.472656 9.320312 24.320312 9.382812 C 24.171875 9.441406 24.101562 9.617188 24.164062 9.765625 C 24.171875 9.78125 24.175781 9.796875 24.183594 9.8125 C 24.0625 9.96875 24.015625 10.179688 24.085938 10.375 C 24.4375 11.390625 24.617188 12.457031 24.617188 13.542969 C 24.617188 14.476562 24.484375 15.402344 24.21875 16.285156 C 24.128906 16.597656 24.304688 16.921875 24.617188 17.015625 C 24.671875 17.03125 24.726562 17.039062 24.78125 17.039062 C 25.035156 17.039062 25.269531 16.875 25.34375 16.621094 C 25.640625 15.625 25.789062 14.589844 25.789062 13.542969 C 25.792969 12.320312 25.589844 11.125 25.191406 9.988281 Z M 25.191406 9.988281 "/>
<path style=" stroke:none;fill-rule:nonzero;fill:rgb(2.352941%,95.294118%,100%);fill-opacity:1;" d="M 15.015625 7.460938 C 11.660156 7.460938 8.933594 10.1875 8.933594 13.539062 C 8.933594 16.894531 11.660156 19.625 15.015625 19.625 C 18.367188 19.625 21.097656 16.894531 21.097656 13.539062 C 21.097656 10.1875 18.367188 7.460938 15.015625 7.460938 Z M 15.015625 19.035156 C 11.984375 19.035156 9.519531 16.570312 9.519531 13.539062 C 9.519531 10.507812 11.984375 8.042969 15.015625 8.042969 C 18.042969 8.042969 20.511719 10.507812 20.511719 13.539062 C 20.511719 16.570312 18.042969 19.035156 15.015625 19.035156 Z M 15.015625 19.035156 "/>
<path style=" stroke:none;fill-rule:nonzero;fill:rgb(0%,35.686275%,100%);fill-opacity:1;" d="M 17.457031 13.988281 L 17.273438 14.371094 L 16.574219 12.324219 C 16.542969 12.234375 16.457031 12.175781 16.363281 12.175781 L 16.359375 12.175781 C 16.261719 12.179688 16.179688 12.238281 16.152344 12.332031 L 14.960938 16.21875 L 14.429688 9.367188 C 14.417969 9.257812 14.332031 9.167969 14.21875 9.164062 C 14.117188 9.144531 14.007812 9.234375 13.988281 9.34375 L 12.992188 14.414062 L 12.542969 13.597656 C 12.515625 13.546875 12.460938 13.503906 12.402344 13.492188 C 12.34375 13.476562 12.28125 13.488281 12.226562 13.519531 L 11.160156 14.230469 L 10.96875 14.179688 C 10.847656 14.144531 10.726562 14.21875 10.695312 14.335938 C 10.664062 14.453125 10.734375 14.578125 10.855469 14.609375 L 11.136719 14.6875 C 11.203125 14.703125 11.265625 14.691406 11.316406 14.65625 L 12.273438 14.023438 L 12.898438 15.160156 C 12.941406 15.242188 13.035156 15.285156 13.128906 15.273438 C 13.21875 15.257812 13.292969 15.1875 13.3125 15.097656 L 14.117188 11.015625 L 14.613281 17.417969 C 14.621094 17.523438 14.703125 17.609375 14.808594 17.621094 C 14.820312 17.625 14.828125 17.625 14.832031 17.625 C 14.929688 17.625 15.015625 17.5625 15.042969 17.46875 L 16.375 13.121094 L 17.03125 15.03125 C 17.0625 15.113281 17.140625 15.171875 17.230469 15.179688 C 17.316406 15.183594 17.402344 15.132812 17.441406 15.054688 L 17.792969 14.316406 L 19.308594 14.390625 C 19.4375 14.410156 19.53125 14.304688 19.539062 14.179688 C 19.542969 14.058594 19.449219 13.953125 19.328125 13.949219 L 17.664062 13.863281 C 17.582031 13.859375 17.496094 13.910156 17.457031 13.988281 Z M 17.457031 13.988281 "/>
</g>
</svg>
