<?xml version="1.0" encoding="UTF-8"?>
<svg xmlns="http://www.w3.org/2000/svg" xmlns:xlink="http://www.w3.org/1999/xlink" width="40px" height="40px" viewBox="0 0 40 40" version="1.1">
<g id="surface1">
<path style=" stroke:none;fill-rule:nonzero;fill:rgb(100%,100%,100%);fill-opacity:1;" d="M 16.890625 17.714844 L 16.230469 19.542969 L 17.566406 19.542969 Z M 16.890625 17.714844 "/>
<path style=" stroke:none;fill-rule:nonzero;fill:rgb(100%,100%,100%);fill-opacity:1;" d="M 28.332031 10.144531 L 12.199219 10.144531 C 11.550781 10.144531 11.019531 10.671875 11.019531 11.316406 L 11.019531 27.453125 C 11.019531 28.097656 11.550781 28.625 12.199219 28.625 L 28.332031 28.625 C 28.980469 28.625 29.503906 28.097656 29.503906 27.453125 L 29.503906 11.316406 C 29.503906 10.667969 28.980469 10.144531 28.332031 10.144531 Z M 24.472656 16.574219 L 25.464844 16.574219 L 25.464844 21.484375 L 24.472656 21.484375 Z M 19.921875 16.574219 L 21.515625 16.574219 C 22.121094 16.574219 22.511719 16.59375 22.699219 16.644531 C 22.980469 16.71875 23.207031 16.878906 23.402344 17.125 C 23.59375 17.371094 23.6875 17.691406 23.6875 18.082031 C 23.6875 18.378906 23.636719 18.636719 23.519531 18.84375 C 23.410156 19.050781 23.269531 19.207031 23.105469 19.328125 C 22.9375 19.441406 22.765625 19.519531 22.589844 19.5625 C 22.347656 19.609375 22.011719 19.628906 21.558594 19.628906 L 20.910156 19.628906 L 20.910156 21.484375 L 19.921875 21.484375 Z M 16.378906 16.574219 L 17.425781 16.574219 L 19.394531 21.484375 L 18.316406 21.484375 L 17.886719 20.363281 L 15.921875 20.363281 L 15.515625 21.484375 L 14.457031 21.484375 Z M 25.328125 27.246094 L 13.769531 27.246094 C 13.015625 27.246094 12.402344 26.636719 12.402344 25.875 L 12.402344 14.355469 C 12.402344 14.136719 12.578125 13.957031 12.792969 13.957031 C 13.011719 13.957031 13.183594 14.136719 13.183594 14.355469 L 13.183594 25.875 C 13.183594 26.199219 13.449219 26.464844 13.769531 26.464844 L 25.328125 26.464844 C 25.542969 26.464844 25.71875 26.640625 25.71875 26.855469 C 25.71875 27.074219 25.546875 27.246094 25.328125 27.246094 Z M 25.328125 27.246094 "/>
<path style=" stroke:none;fill-rule:nonzero;fill:rgb(100%,100%,100%);fill-opacity:1;" d="M 22.238281 18.71875 C 22.375 18.667969 22.480469 18.582031 22.550781 18.480469 C 22.625 18.363281 22.660156 18.238281 22.660156 18.09375 C 22.660156 17.910156 22.613281 17.765625 22.503906 17.652344 C 22.402344 17.535156 22.269531 17.464844 22.109375 17.433594 C 21.988281 17.410156 21.753906 17.394531 21.394531 17.394531 L 20.917969 17.394531 L 20.917969 18.792969 L 21.457031 18.792969 C 21.847656 18.796875 22.109375 18.769531 22.238281 18.71875 Z M 22.238281 18.71875 "/>
<path style=" stroke:none;fill-rule:nonzero;fill:rgb(2.352941%,95.294118%,100%);fill-opacity:1;" d="M 25.328125 26.464844 L 13.769531 26.464844 C 13.449219 26.464844 13.183594 26.199219 13.183594 25.875 L 13.183594 14.355469 C 13.183594 14.136719 13.011719 13.957031 12.792969 13.957031 C 12.578125 13.957031 12.402344 14.136719 12.402344 14.355469 L 12.402344 25.875 C 12.402344 26.636719 13.015625 27.246094 13.769531 27.246094 L 25.328125 27.246094 C 25.542969 27.246094 25.71875 27.074219 25.71875 26.855469 C 25.71875 26.640625 25.546875 26.464844 25.328125 26.464844 Z M 25.328125 26.464844 "/>
<path style=" stroke:none;fill-rule:nonzero;fill:rgb(0%,35.686275%,100%);fill-opacity:1;" d="M 33.792969 15.097656 C 34.21875 15.097656 34.574219 14.746094 34.574219 14.316406 C 34.574219 13.886719 34.21875 13.535156 33.792969 13.535156 L 31.066406 13.535156 L 31.066406 11.316406 C 31.066406 9.808594 29.839844 8.582031 28.332031 8.582031 L 27.246094 8.582031 L 27.246094 5.953125 C 27.246094 5.519531 26.894531 5.171875 26.464844 5.171875 C 26.035156 5.171875 25.683594 5.519531 25.683594 5.953125 L 25.683594 8.582031 L 23.863281 8.582031 L 23.863281 5.953125 C 23.863281 5.519531 23.515625 5.171875 23.082031 5.171875 C 22.65625 5.171875 22.300781 5.519531 22.300781 5.953125 L 22.300781 8.582031 L 20.488281 8.582031 L 20.488281 5.953125 C 20.488281 5.519531 20.136719 5.171875 19.707031 5.171875 C 19.277344 5.171875 18.925781 5.519531 18.925781 5.953125 L 18.925781 8.582031 L 17.109375 8.582031 L 17.109375 5.953125 C 17.109375 5.519531 16.761719 5.171875 16.328125 5.171875 C 15.894531 5.171875 15.546875 5.519531 15.546875 5.953125 L 15.546875 8.582031 L 12.199219 8.582031 C 10.6875 8.582031 9.457031 9.808594 9.457031 11.316406 L 9.457031 13.535156 L 6.738281 13.535156 C 6.308594 13.535156 5.957031 13.886719 5.957031 14.316406 C 5.957031 14.746094 6.308594 15.097656 6.738281 15.097656 L 9.457031 15.097656 L 9.457031 16.917969 L 6.738281 16.917969 C 6.308594 16.917969 5.957031 17.265625 5.957031 17.699219 C 5.957031 18.125 6.308594 18.480469 6.738281 18.480469 L 9.457031 18.480469 L 9.457031 20.292969 L 6.738281 20.292969 C 6.308594 20.292969 5.957031 20.644531 5.957031 21.074219 C 5.957031 21.503906 6.308594 21.855469 6.738281 21.855469 L 9.457031 21.855469 L 9.457031 23.671875 L 6.738281 23.671875 C 6.308594 23.671875 5.957031 24.019531 5.957031 24.453125 C 5.957031 24.886719 6.308594 25.234375 6.738281 25.234375 L 9.457031 25.234375 L 9.457031 27.453125 C 9.457031 28.957031 10.6875 30.1875 12.199219 30.1875 L 13.394531 30.1875 L 13.394531 33.019531 C 13.394531 33.449219 13.75 33.800781 14.175781 33.800781 C 14.609375 33.800781 14.957031 33.449219 14.957031 33.019531 L 14.957031 30.1875 L 16.777344 30.1875 L 16.777344 33.019531 C 16.777344 33.449219 17.128906 33.800781 17.558594 33.800781 C 17.988281 33.800781 18.339844 33.449219 18.339844 33.019531 L 18.339844 30.1875 L 20.15625 30.1875 L 20.15625 33.019531 C 20.15625 33.449219 20.511719 33.800781 20.9375 33.800781 C 21.363281 33.800781 21.71875 33.449219 21.71875 33.019531 L 21.71875 30.1875 L 23.535156 30.1875 L 23.535156 33.019531 C 23.535156 33.449219 23.886719 33.800781 24.316406 33.800781 C 24.746094 33.800781 25.097656 33.449219 25.097656 33.019531 L 25.097656 30.1875 L 28.332031 30.1875 C 29.839844 30.1875 31.066406 28.957031 31.066406 27.453125 L 31.066406 25.234375 L 33.792969 25.234375 C 34.21875 25.234375 34.574219 24.886719 34.574219 24.453125 C 34.574219 24.019531 34.21875 23.671875 33.792969 23.671875 L 31.066406 23.671875 L 31.066406 21.855469 L 33.792969 21.855469 C 34.21875 21.855469 34.574219 21.503906 34.574219 21.074219 C 34.574219 20.644531 34.21875 20.292969 33.792969 20.292969 L 31.066406 20.292969 L 31.066406 18.480469 L 33.792969 18.480469 C 34.21875 18.480469 34.574219 18.125 34.574219 17.699219 C 34.574219 17.265625 34.21875 16.917969 33.792969 16.917969 L 31.066406 16.917969 L 31.066406 15.097656 Z M 29.503906 27.449219 C 29.503906 28.09375 28.980469 28.621094 28.332031 28.621094 L 12.199219 28.621094 C 11.550781 28.621094 11.019531 28.09375 11.019531 27.449219 L 11.019531 11.316406 C 11.019531 10.671875 11.550781 10.144531 12.199219 10.144531 L 28.332031 10.144531 C 28.980469 10.144531 29.503906 10.671875 29.503906 11.316406 Z M 29.503906 27.449219 "/>
<path style=" stroke:none;fill-rule:nonzero;fill:rgb(0%,35.686275%,100%);fill-opacity:1;" d="M 15.921875 20.363281 L 17.886719 20.363281 L 18.316406 21.484375 L 19.394531 21.484375 L 17.425781 16.574219 L 16.375 16.574219 L 14.464844 21.484375 L 15.515625 21.484375 Z M 16.890625 17.714844 L 17.566406 19.542969 L 16.230469 19.542969 Z M 20.917969 19.636719 L 21.5625 19.636719 C 22.011719 19.636719 22.355469 19.609375 22.59375 19.5625 C 22.769531 19.519531 22.941406 19.449219 23.109375 19.328125 C 23.277344 19.207031 23.417969 19.050781 23.527344 18.84375 C 23.636719 18.636719 23.691406 18.386719 23.691406 18.082031 C 23.691406 17.691406 23.597656 17.371094 23.40625 17.125 C 23.214844 16.878906 22.980469 16.71875 22.699219 16.644531 C 22.515625 16.59375 22.121094 16.574219 21.519531 16.574219 L 19.921875 16.574219 L 19.921875 21.484375 L 20.917969 21.484375 Z M 20.917969 17.402344 L 21.394531 17.402344 C 21.753906 17.402344 21.988281 17.417969 22.109375 17.4375 C 22.269531 17.464844 22.402344 17.542969 22.503906 17.65625 C 22.613281 17.769531 22.660156 17.921875 22.660156 18.097656 C 22.660156 18.238281 22.625 18.371094 22.550781 18.480469 C 22.480469 18.589844 22.371094 18.671875 22.238281 18.722656 C 22.109375 18.769531 21.847656 18.800781 21.457031 18.800781 L 20.917969 18.800781 Z M 24.472656 16.574219 L 25.464844 16.574219 L 25.464844 21.484375 L 24.472656 21.484375 Z M 24.472656 16.574219 "/>
</g>
</svg>
