<?xml version="1.0" encoding="UTF-8"?>
<svg xmlns="http://www.w3.org/2000/svg" xmlns:xlink="http://www.w3.org/1999/xlink" width="50px" height="50px" viewBox="0 0 50 50" version="1.1">
<g id="surface1">
<path style=" stroke:none;fill-rule:nonzero;fill:rgb(100%,100%,100%);fill-opacity:1;" d="M 41.730469 40.4375 L 8.292969 40.4375 C 6.394531 40.4375 4.855469 38.894531 4.855469 36.992188 L 4.855469 12.628906 C 4.855469 10.730469 6.394531 9.1875 8.292969 9.1875 L 41.730469 9.1875 C 43.625 9.1875 45.167969 10.730469 45.167969 12.628906 L 45.167969 36.992188 C 45.175781 38.894531 43.632812 40.4375 41.730469 40.4375 Z M 41.730469 40.4375 "/>
<path style=" stroke:none;fill-rule:nonzero;fill:rgb(90.196079%,90.196079%,90.196079%);fill-opacity:1;" d="M 43.222656 12.605469 C 43.222656 11.796875 42.566406 11.140625 41.757812 11.140625 L 8.269531 11.140625 C 7.46875 11.140625 6.808594 11.796875 6.808594 12.605469 L 6.808594 18.46875 L 43.214844 18.46875 L 43.214844 12.605469 Z M 11.496094 17.296875 C 10.125 17.296875 8.996094 16.171875 8.996094 14.796875 C 8.996094 13.417969 10.125 12.296875 11.496094 12.296875 C 12.878906 12.296875 13.996094 13.417969 13.996094 14.796875 C 13.996094 16.171875 12.878906 17.296875 11.496094 17.296875 Z M 25.261719 16.964844 L 18.292969 16.964844 C 17.117188 16.964844 16.160156 16.003906 16.160156 14.832031 C 16.160156 13.652344 17.121094 12.695312 18.292969 12.695312 L 25.261719 12.695312 C 26.433594 12.695312 27.394531 13.652344 27.394531 14.832031 C 27.394531 16.003906 26.433594 16.964844 25.261719 16.964844 Z M 25.261719 16.964844 "/>
<path style=" stroke:none;fill-rule:nonzero;fill:rgb(2.352941%,95.294118%,100%);fill-opacity:1;" d="M 10.417969 36.757812 L 25.007812 36.757812 C 25.273438 36.757812 25.496094 36.535156 25.496094 36.269531 C 25.496094 36.003906 25.273438 35.78125 25.007812 35.78125 L 10.417969 35.78125 C 10 35.78125 9.660156 35.441406 9.660156 35.027344 L 9.660156 25.613281 C 9.660156 25.34375 9.441406 25.128906 9.171875 25.128906 C 8.90625 25.128906 8.683594 25.34375 8.683594 25.613281 L 8.683594 35.03125 C 8.691406 35.984375 9.464844 36.757812 10.417969 36.757812 Z M 10.417969 36.757812 "/>
<path style=" stroke:none;fill-rule:nonzero;fill:rgb(100%,100%,100%);fill-opacity:1;" d="M 11.496094 13.269531 C 10.65625 13.269531 9.972656 13.957031 9.972656 14.792969 C 9.972656 15.636719 10.65625 16.316406 11.496094 16.316406 C 12.335938 16.316406 13.019531 15.636719 13.019531 14.792969 C 13.019531 13.957031 12.335938 13.269531 11.496094 13.269531 Z M 11.496094 13.269531 "/>
<path style=" stroke:none;fill-rule:nonzero;fill:rgb(0%,35.686275%,100%);fill-opacity:1;" d="M 11.496094 12.292969 C 10.125 12.292969 8.996094 13.417969 8.996094 14.792969 C 8.996094 16.171875 10.125 17.292969 11.496094 17.292969 C 12.878906 17.292969 13.996094 16.171875 13.996094 14.792969 C 13.996094 13.417969 12.878906 12.292969 11.496094 12.292969 Z M 11.496094 16.320312 C 10.65625 16.320312 9.972656 15.636719 9.972656 14.796875 C 9.972656 13.957031 10.65625 13.273438 11.496094 13.273438 C 12.335938 13.273438 13.019531 13.957031 13.019531 14.796875 C 13.019531 15.636719 12.335938 16.320312 11.496094 16.320312 Z M 11.496094 16.320312 "/>
<path style=" stroke:none;fill-rule:nonzero;fill:rgb(100%,100%,100%);fill-opacity:1;" d="M 25.261719 13.679688 L 18.292969 13.679688 C 17.664062 13.679688 17.136719 14.191406 17.136719 14.832031 C 17.136719 15.476562 17.65625 15.988281 18.292969 15.988281 L 25.261719 15.988281 C 25.890625 15.988281 26.417969 15.476562 26.417969 14.832031 C 26.417969 14.191406 25.890625 13.679688 25.261719 13.679688 Z M 25.261719 13.679688 "/>
<path style=" stroke:none;fill-rule:nonzero;fill:rgb(0%,35.686275%,100%);fill-opacity:1;" d="M 25.261719 12.703125 L 18.292969 12.703125 C 17.117188 12.703125 16.160156 13.660156 16.160156 14.832031 C 16.160156 16.007812 17.121094 16.964844 18.292969 16.964844 L 25.261719 16.964844 C 26.433594 16.964844 27.394531 16.007812 27.394531 14.832031 C 27.394531 13.660156 26.433594 12.703125 25.261719 12.703125 Z M 25.261719 15.988281 L 18.292969 15.988281 C 17.664062 15.988281 17.136719 15.46875 17.136719 14.832031 C 17.136719 14.191406 17.65625 13.671875 18.292969 13.671875 L 25.261719 13.671875 C 25.890625 13.671875 26.417969 14.191406 26.417969 14.832031 C 26.417969 15.46875 25.890625 15.988281 25.261719 15.988281 Z M 25.261719 15.988281 "/>
<path style=" stroke:none;fill-rule:nonzero;fill:rgb(0%,35.686275%,100%);fill-opacity:1;" d="M 41.757812 9.1875 L 8.269531 9.1875 C 6.386719 9.1875 4.855469 10.714844 4.855469 12.605469 L 4.855469 37.019531 C 4.855469 38.898438 6.386719 40.4375 8.269531 40.4375 L 41.75 40.4375 C 43.640625 40.4375 45.167969 38.898438 45.167969 37.019531 L 45.167969 12.605469 C 45.175781 10.714844 43.644531 9.1875 41.757812 9.1875 Z M 43.222656 37.019531 C 43.222656 37.824219 42.566406 38.484375 41.757812 38.484375 L 8.269531 38.484375 C 7.46875 38.484375 6.808594 37.824219 6.808594 37.019531 L 6.808594 19.441406 L 43.214844 19.441406 L 43.214844 37.019531 Z M 43.222656 18.46875 L 6.808594 18.46875 L 6.808594 12.605469 C 6.808594 11.796875 7.472656 11.140625 8.273438 11.140625 L 41.757812 11.140625 C 42.566406 11.140625 43.222656 11.796875 43.222656 12.605469 Z M 43.222656 18.46875 "/>
<path style=" stroke:none;fill-rule:nonzero;fill:rgb(0%,35.686275%,100%);fill-opacity:1;" d="M 22.453125 30.496094 L 16.875 28.289062 L 22.453125 26.152344 L 22.453125 23.878906 L 14.460938 27.34375 L 14.460938 29.269531 L 22.453125 32.746094 Z M 27.765625 22.207031 L 26.085938 22.207031 L 23.195312 34.277344 L 24.851562 34.277344 Z M 36.515625 27.355469 L 28.507812 23.894531 L 28.507812 26.132812 L 34.09375 28.308594 L 28.507812 30.5 L 28.507812 32.761719 L 36.515625 29.269531 Z M 36.515625 27.355469 "/>
</g>
</svg>
